<svg xmlns="http://www.w3.org/2000/svg" viewBox="0 0 512 512" width="512" height="512">
  <defs>
    <radialGradient id="bg"><stop offset="0%" stop-color="#1a0802"/><stop offset="100%" stop-color="#0d0604"/></radialGradient>
    <radialGradient id="aura" cx="50%" cy="40%" r="40%"><stop offset="0%" stop-color="#7C3AED" stop-opacity="0.15"/><stop offset="100%" stop-color="#7C3AED" stop-opacity="0"/></radialGradient>
    <linearGradient id="stone" x1="0" y1="0" x2="0" y2="1"><stop offset="0%" stop-color="#222"/><stop offset="100%" stop-color="#0a0a0a"/></linearGradient>
    <filter id="glow"><feGaussianBlur in="SourceGraphic" stdDeviation="4" result="b"/><feMerge><feMergeNode in="b"/><feMergeNode in="SourceGraphic"/></feMerge></filter>
    <filter id="auraF"><feGaussianBlur in="SourceGraphic" stdDeviation="10"/></filter>
  </defs>
  <rect width="512" height="512" fill="url(#bg)"/>
  <circle cx="256" cy="176" r="150" fill="url(#aura)"/>

  <!-- Body -->
  <path d="M214 146 L196 186 L201 336 L226 366 L286 366 L311 336 L316 186 L298 146Z" fill="url(#stone)" stroke="#1a1a1a" stroke-width="1"/>

  <!-- Shoulder pads -->
  <path d="M214 146 L194 161 L199 196 L214 196Z" fill="#161616"/>
  <path d="M298 146 L318 161 L313 196 L298 196Z" fill="#161616"/>

  <!-- Helm -->
  <path d="M223 106 L223 146 L289 146 L289 106Z" fill="#181818" stroke="#222" stroke-width="1"/>

  <!-- Eyes -->
  <g fill="#8B5CF6" filter="url(#glow)">
    <path d="M230 131 L238 128 L246 131 L238 134Z"/>
    <path d="M266 131 L274 128 L282 131 L274 134Z"/>
  </g>
  <g fill="#A78BFA" opacity="0.7">
    <path d="M230 131 L238 128 L246 131 L238 134Z"/>
    <path d="M266 131 L274 128 L282 131 L274 134Z"/>
  </g>

  <!-- Energy veins -->
  <g filter="url(#glow)">
    <!-- Center spine -->
    <path d="M256 146 L254 216 L257 286 L255 326" fill="none" stroke="#8B5CF6" stroke-width="2" opacity="0.6"/>
    <path d="M220 139 L236 193 L254 244 L254 284 L248 337" fill="none" stroke="#8B5CF6" stroke-width="1.6" stroke-linecap="round" opacity="0.32"/>
      <path d="M248 337 L261 368" fill="none" stroke="#8B5CF6" stroke-width="1.0" stroke-linecap="round" opacity="0.22"/>
      <path d="M202 165 L187 212 L199 260" fill="none" stroke="#8B5CF6" stroke-width="1.9" stroke-linecap="round" opacity="0.51"/>
      <path d="M199 260 L216 285" fill="none" stroke="#8B5CF6" stroke-width="1.1" stroke-linecap="round" opacity="0.36"/>
      <path d="M296 157 L315 207 L330 258" fill="none" stroke="#8B5CF6" stroke-width="1.3" stroke-linecap="round" opacity="0.73"/>
      <path d="M295 162 L283 206 L274 241 L271 300 L273 332" fill="none" stroke="#8B5CF6" stroke-width="1.5" stroke-linecap="round" opacity="0.30"/>
      <path d="M273 332 L267 372" fill="none" stroke="#8B5CF6" stroke-width="0.9" stroke-linecap="round" opacity="0.21"/>
      <path d="M283 160 L266 211 L247 271 L259 315 L243 370" fill="none" stroke="#8B5CF6" stroke-width="2.1" stroke-linecap="round" opacity="0.32"/>
      <path d="M197 162 L180 194 L173 231 L160 272" fill="none" stroke="#8B5CF6" stroke-width="1.3" stroke-linecap="round" opacity="0.54"/>
      <path d="M160 272 L152 297" fill="none" stroke="#8B5CF6" stroke-width="0.8" stroke-linecap="round" opacity="0.38"/>
      <path d="M208 168 L202 226 L185 276 L177 320" fill="none" stroke="#8B5CF6" stroke-width="1.5" stroke-linecap="round" opacity="0.51"/>
      <path d="M177 320 L170 343" fill="none" stroke="#8B5CF6" stroke-width="0.9" stroke-linecap="round" opacity="0.36"/>
      <path d="M293 161 L304 213 L289 261 L269 297" fill="none" stroke="#8B5CF6" stroke-width="2.3" stroke-linecap="round" opacity="0.55"/>
      <path d="M269 297 L280 313" fill="none" stroke="#8B5CF6" stroke-width="1.4" stroke-linecap="round" opacity="0.39"/>
      
  </g>

  <path d="M256 211 L268 226 L256 241 L244 226Z" fill="none" stroke="#A78BFA" stroke-width="1.5" opacity="0.6"/>

  <!-- Particles -->
  <circle cx="300" cy="329" r="2.5" fill="#8B5CF6" opacity="0.21"/>
      <circle cx="184" cy="356" r="2.7" fill="#8B5CF6" opacity="0.22"/>
      <circle cx="192" cy="111" r="1.2" fill="#8B5CF6" opacity="0.31"/>
      <circle cx="274" cy="356" r="2.2" fill="#8B5CF6" opacity="0.19"/>
      <circle cx="309" cy="355" r="1.7" fill="#8B5CF6" opacity="0.25"/>
      <circle cx="268" cy="150" r="1.2" fill="#8B5CF6" opacity="0.21"/>
      <circle cx="253" cy="296" r="1.5" fill="#8B5CF6" opacity="0.16"/>
      <circle cx="218" cy="314" r="2.6" fill="#8B5CF6" opacity="0.32"/>
      

  <!-- Ambient glow at feet -->
  <ellipse cx="256" cy="371" rx="70" ry="15" fill="#7C3AED" opacity="0.08" filter="url(#auraF)"/>

  <!-- Border ring -->
  <rect x="4" y="4" width="504" height="504" rx="16" fill="none" stroke="#8B5CF6" stroke-width="1" opacity="0.1"/>
</svg>