<svg xmlns="http://www.w3.org/2000/svg" viewBox="0 0 512 512" width="512" height="512">
  <defs>
    <radialGradient id="bg"><stop offset="0%" stop-color="#08061a"/><stop offset="100%" stop-color="#040408"/></radialGradient>
    <radialGradient id="aura" cx="50%" cy="40%" r="40%"><stop offset="0%" stop-color="#7C3AED" stop-opacity="0.15"/><stop offset="100%" stop-color="#7C3AED" stop-opacity="0"/></radialGradient>
    <linearGradient id="stone" x1="0" y1="0" x2="0" y2="1"><stop offset="0%" stop-color="#222"/><stop offset="100%" stop-color="#0a0a0a"/></linearGradient>
    <filter id="glow"><feGaussianBlur in="SourceGraphic" stdDeviation="4" result="b"/><feMerge><feMergeNode in="b"/><feMergeNode in="SourceGraphic"/></feMerge></filter>
    <filter id="auraF"><feGaussianBlur in="SourceGraphic" stdDeviation="10"/></filter>
  </defs>
  <rect width="512" height="512" fill="url(#bg)"/>
  <circle cx="256" cy="143" r="150" fill="url(#aura)"/>

  <!-- Body -->
  <path d="M201 113 L178 153 L183 369 L217 399 L295 399 L329 369 L334 153 L311 113Z" fill="url(#stone)" stroke="#1a1a1a" stroke-width="1"/>

  <!-- Shoulder pads -->
  <path d="M201 113 L181 128 L186 163 L201 163Z" fill="#161616"/>
  <path d="M311 113 L331 128 L326 163 L311 163Z" fill="#161616"/>

  <!-- Helm -->
  <path d="M256 43 L213 83 L218 113 L294 113 L299 83Z" fill="#181818" stroke="#222" stroke-width="1"/>

  <!-- Eyes -->
  <g fill="#8B5CF6" filter="url(#glow)">
    <circle cx="232" cy="98" r="7"/>
    <circle cx="280" cy="98" r="7"/>
  </g>
  <g fill="#A78BFA" opacity="0.7">
    <circle cx="232" cy="98" r="7"/>
    <circle cx="280" cy="98" r="7"/>
  </g>

  <!-- Energy veins -->
  <g filter="url(#glow)">
    <!-- Center spine -->
    <path d="M256 113 L254 183 L257 253 L255 359" fill="none" stroke="#8B5CF6" stroke-width="2" opacity="0.6"/>
    <path d="M274 115 L294 152 L300 206" fill="none" stroke="#8B5CF6" stroke-width="1.6" stroke-linecap="round" opacity="0.62"/>
      <path d="M308 111 L298 170 L302 201" fill="none" stroke="#8B5CF6" stroke-width="2.5" stroke-linecap="round" opacity="0.61"/>
      <path d="M182 132 L164 164 L174 204" fill="none" stroke="#8B5CF6" stroke-width="1.0" stroke-linecap="round" opacity="0.55"/>
      <path d="M174 204 L169 238" fill="none" stroke="#8B5CF6" stroke-width="0.6" stroke-linecap="round" opacity="0.39"/>
      <path d="M284 122 L303 153 L297 207 L304 243 L312 297" fill="none" stroke="#8B5CF6" stroke-width="1.4" stroke-linecap="round" opacity="0.32"/>
      <path d="M320 126 L310 157 L304 201" fill="none" stroke="#8B5CF6" stroke-width="1.6" stroke-linecap="round" opacity="0.48"/>
      
  </g>

  <path d="M256 178 L268 193 L256 208 L244 193Z" fill="none" stroke="#A78BFA" stroke-width="1.5" opacity="0.6"/>

  <!-- Particles -->
  

  <!-- Ambient glow at feet -->
  <ellipse cx="256" cy="404" rx="88" ry="15" fill="#7C3AED" opacity="0.08" filter="url(#auraF)"/>

  <!-- Border ring -->
  <rect x="4" y="4" width="504" height="504" rx="16" fill="none" stroke="#8B5CF6" stroke-width="1" opacity="0.1"/>
</svg>