<svg xmlns="http://www.w3.org/2000/svg" viewBox="0 0 512 512" width="512" height="512">
  <defs>
    <radialGradient id="bg"><stop offset="0%" stop-color="#161412"/><stop offset="100%" stop-color="#0a0908"/></radialGradient>
    <radialGradient id="aura" cx="50%" cy="40%" r="40%"><stop offset="0%" stop-color="#FF4500" stop-opacity="0.15"/><stop offset="100%" stop-color="#FF4500" stop-opacity="0"/></radialGradient>
    <linearGradient id="stone" x1="0" y1="0" x2="0" y2="1"><stop offset="0%" stop-color="#222"/><stop offset="100%" stop-color="#0a0a0a"/></linearGradient>
    <filter id="glow"><feGaussianBlur in="SourceGraphic" stdDeviation="4" result="b"/><feMerge><feMergeNode in="b"/><feMergeNode in="SourceGraphic"/></feMerge></filter>
    <filter id="auraF"><feGaussianBlur in="SourceGraphic" stdDeviation="10"/></filter>
  </defs>
  <rect width="512" height="512" fill="url(#bg)"/>
  <circle cx="256" cy="160" r="150" fill="url(#aura)"/>

  <!-- Body -->
  <path d="M208 130 L187 170 L192 353 L221.5 383 L290.5 383 L320 353 L325 170 L304 130Z" fill="url(#stone)" stroke="#1a1a1a" stroke-width="1"/>

  <!-- Shoulder pads -->
  <path d="M208 130 L188 145 L193 180 L208 180Z" fill="#161616"/>
  <path d="M304 130 L324 145 L319 180 L304 180Z" fill="#161616"/>

  <!-- Helm -->
  <path d="M256 60 L218 100 L223 130 L289 130 L294 100Z" fill="#181818" stroke="#222" stroke-width="1"/>

  <!-- Eyes -->
  <g fill="#FF6B00" filter="url(#glow)">
    <path d="M227 115 L235 112 L243 115 L235 118Z"/>
    <path d="M269 115 L277 112 L285 115 L277 118Z"/>
  </g>
  <g fill="#FF9500" opacity="0.7">
    <path d="M227 115 L235 112 L243 115 L235 118Z"/>
    <path d="M269 115 L277 112 L285 115 L277 118Z"/>
  </g>

  <!-- Energy veins -->
  <g filter="url(#glow)">
    <!-- Center spine -->
    <path d="M256 130 L254 200 L257 270 L255 343" fill="none" stroke="#FF6B00" stroke-width="2" opacity="0.6"/>
    <path d="M272 132 L290 174 L303 209 L311 254 L302 304" fill="none" stroke="#FF6B00" stroke-width="1.3" stroke-linecap="round" opacity="0.43"/>
      <path d="M322 129 L313 186 L319 243 L300 287 L297 336" fill="none" stroke="#FF6B00" stroke-width="1.3" stroke-linecap="round" opacity="0.68"/>
      <path d="M232 125 L246 179 L255 227" fill="none" stroke="#FF6B00" stroke-width="1.7" stroke-linecap="round" opacity="0.39"/>
      <path d="M192 131 L194 185 L190 226 L202 258 L211 308" fill="none" stroke="#FF6B00" stroke-width="1.1" stroke-linecap="round" opacity="0.40"/>
      <path d="M199 132 L207 166 L188 207" fill="none" stroke="#FF6B00" stroke-width="2.3" stroke-linecap="round" opacity="0.50"/>
      <path d="M218 148 L219 190 L219 249" fill="none" stroke="#FF6B00" stroke-width="2.3" stroke-linecap="round" opacity="0.53"/>
      <path d="M267 152 L283 183 L278 215 L268 274 L288 308" fill="none" stroke="#FF6B00" stroke-width="2.2" stroke-linecap="round" opacity="0.55"/>
      <path d="M307 147 L311 187 L292 217 L308 275" fill="none" stroke="#FF6B00" stroke-width="1.6" stroke-linecap="round" opacity="0.64"/>
      <path d="M308 275 L312 299" fill="none" stroke="#FF6B00" stroke-width="1.0" stroke-linecap="round" opacity="0.45"/>
      <path d="M299 151 L312 185 L307 218" fill="none" stroke="#FF6B00" stroke-width="1.2" stroke-linecap="round" opacity="0.62"/>
      <path d="M217 120 L223 150 L243 184" fill="none" stroke="#FF6B00" stroke-width="2.4" stroke-linecap="round" opacity="0.70"/>
      <path d="M243 184 L255 199" fill="none" stroke="#FF6B00" stroke-width="1.4" stroke-linecap="round" opacity="0.49"/>
      <path d="M286 128 L291 174 L289 227 L306 276" fill="none" stroke="#FF6B00" stroke-width="1.5" stroke-linecap="round" opacity="0.36"/>
      <path d="M306 276 L325 312" fill="none" stroke="#FF6B00" stroke-width="0.9" stroke-linecap="round" opacity="0.25"/>
      <path d="M300 130 L305 187 L297 223 L302 265 L309 300" fill="none" stroke="#FF6B00" stroke-width="1.7" stroke-linecap="round" opacity="0.60"/>
      <path d="M309 300 L307 329" fill="none" stroke="#FF6B00" stroke-width="1.0" stroke-linecap="round" opacity="0.42"/>
      
  </g>

  

  <!-- Particles -->
  <circle cx="164" cy="318" r="2.8" fill="#FF6B00" opacity="0.40"/>
      <circle cx="349" cy="242" r="2.7" fill="#FF6B00" opacity="0.39"/>
      <circle cx="253" cy="250" r="1.9" fill="#FF6B00" opacity="0.26"/>
      <circle cx="268" cy="367" r="2.6" fill="#FF6B00" opacity="0.28"/>
      <circle cx="192" cy="158" r="2.0" fill="#FF6B00" opacity="0.21"/>
      <circle cx="178" cy="203" r="1.0" fill="#FF6B00" opacity="0.27"/>
      <circle cx="285" cy="103" r="2.5" fill="#FF6B00" opacity="0.29"/>
      <circle cx="242" cy="180" r="1.7" fill="#FF6B00" opacity="0.37"/>
      <circle cx="305" cy="267" r="1.4" fill="#FF6B00" opacity="0.34"/>
      <circle cx="329" cy="89" r="1.9" fill="#FF6B00" opacity="0.30"/>
      <circle cx="209" cy="374" r="2.5" fill="#FF6B00" opacity="0.42"/>
      <circle cx="347" cy="126" r="1.3" fill="#FF6B00" opacity="0.35"/>
      <circle cx="199" cy="284" r="1.3" fill="#FF6B00" opacity="0.50"/>
      <circle cx="257" cy="180" r="3.0" fill="#FF6B00" opacity="0.21"/>
      <circle cx="318" cy="142" r="1.1" fill="#FF6B00" opacity="0.35"/>
      

  <!-- Ambient glow at feet -->
  <ellipse cx="256" cy="388" rx="79" ry="15" fill="#FF4500" opacity="0.08" filter="url(#auraF)"/>

  <!-- Border ring -->
  <rect x="4" y="4" width="504" height="504" rx="16" fill="none" stroke="#FF6B00" stroke-width="1" opacity="0.1"/>
</svg>