<svg xmlns="http://www.w3.org/2000/svg" viewBox="0 0 512 512" width="512" height="512">
  <defs>
    <radialGradient id="bg"><stop offset="0%" stop-color="#08061a"/><stop offset="100%" stop-color="#040408"/></radialGradient>
    <radialGradient id="aura" cx="50%" cy="40%" r="40%"><stop offset="0%" stop-color="#DB2777" stop-opacity="0.15"/><stop offset="100%" stop-color="#DB2777" stop-opacity="0"/></radialGradient>
    <linearGradient id="stone" x1="0" y1="0" x2="0" y2="1"><stop offset="0%" stop-color="#222"/><stop offset="100%" stop-color="#0a0a0a"/></linearGradient>
    <filter id="glow"><feGaussianBlur in="SourceGraphic" stdDeviation="4" result="b"/><feMerge><feMergeNode in="b"/><feMergeNode in="SourceGraphic"/></feMerge></filter>
    <filter id="auraF"><feGaussianBlur in="SourceGraphic" stdDeviation="10"/></filter>
  </defs>
  <rect width="512" height="512" fill="url(#bg)"/>
  <circle cx="256" cy="143" r="150" fill="url(#aura)"/>

  <!-- Body -->
  <path d="M201 113 L178 153 L183 369 L217 399 L295 399 L329 369 L334 153 L311 113Z" fill="url(#stone)" stroke="#1a1a1a" stroke-width="1"/>

  <!-- Shoulder pads -->
  <path d="M201 113 L181 128 L186 163 L201 163Z" fill="#161616"/>
  <path d="M311 113 L331 128 L326 163 L311 163Z" fill="#161616"/>

  <!-- Helm -->
  <path d="M213 73 L213 113 L299 113 L299 73Z" fill="#181818" stroke="#222" stroke-width="1"/>

  <!-- Eyes -->
  <g fill="#EC4899" filter="url(#glow)">
    <path d="M232 90 L240 98 L232 106 L224 98Z"/>
    <path d="M280 90 L288 98 L280 106 L272 98Z"/>
  </g>
  <g fill="#F9A8D4" opacity="0.7">
    <path d="M232 90 L240 98 L232 106 L224 98Z"/>
    <path d="M280 90 L288 98 L280 106 L272 98Z"/>
  </g>

  <!-- Energy veins -->
  <g filter="url(#glow)">
    <!-- Center spine -->
    <path d="M256 113 L254 183 L257 253 L255 359" fill="none" stroke="#EC4899" stroke-width="2" opacity="0.6"/>
    <path d="M302 118 L322 168 L310 221 L301 273" fill="none" stroke="#EC4899" stroke-width="2.0" stroke-linecap="round" opacity="0.42"/>
      <path d="M301 273 L317 308" fill="none" stroke="#EC4899" stroke-width="1.2" stroke-linecap="round" opacity="0.29"/>
      <path d="M222 129 L205 171 L206 217 L190 247 L209 301" fill="none" stroke="#EC4899" stroke-width="1.2" stroke-linecap="round" opacity="0.38"/>
      <path d="M248 133 L248 187 L235 247 L216 305 L207 339" fill="none" stroke="#EC4899" stroke-width="2.1" stroke-linecap="round" opacity="0.47"/>
      <path d="M207 339 L225 357" fill="none" stroke="#EC4899" stroke-width="1.3" stroke-linecap="round" opacity="0.33"/>
      <path d="M263 120 L258 175 L267 232 L286 275" fill="none" stroke="#EC4899" stroke-width="1.9" stroke-linecap="round" opacity="0.60"/>
      <path d="M280 135 L272 189 L257 236 L267 284 L270 336" fill="none" stroke="#EC4899" stroke-width="1.8" stroke-linecap="round" opacity="0.74"/>
      
  </g>

  <path d="M256 178 L268 193 L256 208 L244 193Z" fill="none" stroke="#F9A8D4" stroke-width="1.5" opacity="0.6"/>

  <!-- Particles -->
  

  <!-- Ambient glow at feet -->
  <ellipse cx="256" cy="404" rx="88" ry="15" fill="#DB2777" opacity="0.08" filter="url(#auraF)"/>

  <!-- Border ring -->
  <rect x="4" y="4" width="504" height="504" rx="16" fill="none" stroke="#EC4899" stroke-width="1" opacity="0.1"/>
</svg>