<svg xmlns="http://www.w3.org/2000/svg" viewBox="0 0 512 512" width="512" height="512">
  <defs>
    <radialGradient id="bg"><stop offset="0%" stop-color="#161412"/><stop offset="100%" stop-color="#0a0908"/></radialGradient>
    <radialGradient id="aura" cx="50%" cy="40%" r="40%"><stop offset="0%" stop-color="#FF4500" stop-opacity="0.15"/><stop offset="100%" stop-color="#FF4500" stop-opacity="0"/></radialGradient>
    <linearGradient id="stone" x1="0" y1="0" x2="0" y2="1"><stop offset="0%" stop-color="#222"/><stop offset="100%" stop-color="#0a0a0a"/></linearGradient>
    <filter id="glow"><feGaussianBlur in="SourceGraphic" stdDeviation="4" result="b"/><feMerge><feMergeNode in="b"/><feMergeNode in="SourceGraphic"/></feMerge></filter>
    <filter id="auraF"><feGaussianBlur in="SourceGraphic" stdDeviation="10"/></filter>
  </defs>
  <rect width="512" height="512" fill="url(#bg)"/>
  <circle cx="256" cy="198" r="150" fill="url(#aura)"/>

  <!-- Body -->
  <path d="M222 168 L208 208 L213 314 L232 344 L280 344 L299 314 L304 208 L290 168Z" fill="url(#stone)" stroke="#1a1a1a" stroke-width="1"/>

  <!-- Shoulder pads -->
  <path d="M222 168 L202 183 L207 218 L222 218Z" fill="#161616"/>
  <path d="M290 168 L310 183 L305 218 L290 218Z" fill="#161616"/>

  <!-- Helm -->
  <path d="M256 88 L240 133 L230 168 L282 168 L272 133Z" fill="#181818" stroke="#222" stroke-width="1"/>

  <!-- Eyes -->
  <g fill="#FF6B00" filter="url(#glow)">
    <path d="M234 153 L242 150 L250 153 L242 156Z"/>
    <path d="M262 153 L270 150 L278 153 L270 156Z"/>
  </g>
  <g fill="#FF9500" opacity="0.7">
    <path d="M234 153 L242 150 L250 153 L242 156Z"/>
    <path d="M262 153 L270 150 L278 153 L270 156Z"/>
  </g>

  <!-- Energy veins -->
  <g filter="url(#glow)">
    <!-- Center spine -->
    <path d="M256 168 L254 238 L257 308 L255 304" fill="none" stroke="#FF6B00" stroke-width="2" opacity="0.6"/>
    <path d="M259 184 L279 237 L263 278 L258 320" fill="none" stroke="#FF6B00" stroke-width="1.5" stroke-linecap="round" opacity="0.68"/>
      <path d="M256 178 L248 208 L228 245" fill="none" stroke="#FF6B00" stroke-width="1.5" stroke-linecap="round" opacity="0.62"/>
      <path d="M228 245 L248 271" fill="none" stroke="#FF6B00" stroke-width="0.9" stroke-linecap="round" opacity="0.43"/>
      <path d="M295 166 L291 217 L300 251 L291 295 L303 333" fill="none" stroke="#FF6B00" stroke-width="2.4" stroke-linecap="round" opacity="0.60"/>
      <path d="M303 333 L282 359" fill="none" stroke="#FF6B00" stroke-width="1.4" stroke-linecap="round" opacity="0.42"/>
      <path d="M245 170 L234 221 L225 274" fill="none" stroke="#FF6B00" stroke-width="1.7" stroke-linecap="round" opacity="0.59"/>
      <path d="M223 176 L209 206 L215 255 L220 297 L220 334" fill="none" stroke="#FF6B00" stroke-width="1.3" stroke-linecap="round" opacity="0.38"/>
      <path d="M220 334 L205 370" fill="none" stroke="#FF6B00" stroke-width="0.8" stroke-linecap="round" opacity="0.27"/>
      
  </g>

  <path d="M256 233 L268 248 L256 263 L244 248Z" fill="none" stroke="#FF9500" stroke-width="1.5" opacity="0.6"/>

  <!-- Particles -->
  

  <!-- Ambient glow at feet -->
  <ellipse cx="256" cy="349" rx="58" ry="15" fill="#FF4500" opacity="0.08" filter="url(#auraF)"/>

  <!-- Border ring -->
  <rect x="4" y="4" width="504" height="504" rx="16" fill="none" stroke="#FF6B00" stroke-width="1" opacity="0.1"/>
</svg>