<svg xmlns="http://www.w3.org/2000/svg" viewBox="0 0 512 512" width="512" height="512">
  <defs>
    <radialGradient id="bg"><stop offset="0%" stop-color="#1a0802"/><stop offset="100%" stop-color="#0d0604"/></radialGradient>
    <radialGradient id="aura" cx="50%" cy="40%" r="40%"><stop offset="0%" stop-color="#FF4500" stop-opacity="0.15"/><stop offset="100%" stop-color="#FF4500" stop-opacity="0"/></radialGradient>
    <linearGradient id="stone" x1="0" y1="0" x2="0" y2="1"><stop offset="0%" stop-color="#222"/><stop offset="100%" stop-color="#0a0a0a"/></linearGradient>
    <filter id="glow"><feGaussianBlur in="SourceGraphic" stdDeviation="4" result="b"/><feMerge><feMergeNode in="b"/><feMergeNode in="SourceGraphic"/></feMerge></filter>
    <filter id="auraF"><feGaussianBlur in="SourceGraphic" stdDeviation="10"/></filter>
  </defs>
  <rect width="512" height="512" fill="url(#bg)"/>
  <circle cx="256" cy="198" r="150" fill="url(#aura)"/>

  <!-- Body -->
  <path d="M222 168 L208 208 L213 314 L232 344 L280 344 L299 314 L304 208 L290 168Z" fill="url(#stone)" stroke="#1a1a1a" stroke-width="1"/>

  <!-- Shoulder pads -->
  <path d="M222 168 L202 183 L207 218 L222 218Z" fill="#161616"/>
  <path d="M290 168 L310 183 L305 218 L290 218Z" fill="#161616"/>

  <!-- Helm -->
  <path d="M256 88 L240 133 L230 168 L282 168 L272 133Z" fill="#181818" stroke="#222" stroke-width="1"/>

  <!-- Eyes -->
  <g fill="#FF6B00" filter="url(#glow)">
    <circle cx="242" cy="153" r="7"/>
    <circle cx="270" cy="153" r="7"/>
  </g>
  <g fill="#FF9500" opacity="0.7">
    <circle cx="242" cy="153" r="7"/>
    <circle cx="270" cy="153" r="7"/>
  </g>

  <!-- Energy veins -->
  <g filter="url(#glow)">
    <!-- Center spine -->
    <path d="M256 168 L254 238 L257 308 L255 304" fill="none" stroke="#FF6B00" stroke-width="2" opacity="0.6"/>
    <path d="M269 192 L281 245 L274 281 L266 313 L278 371" fill="none" stroke="#FF6B00" stroke-width="1.2" stroke-linecap="round" opacity="0.64"/>
      <path d="M213 190 L195 239 L202 283" fill="none" stroke="#FF6B00" stroke-width="1.8" stroke-linecap="round" opacity="0.40"/>
      <path d="M202 283 L215 304" fill="none" stroke="#FF6B00" stroke-width="1.1" stroke-linecap="round" opacity="0.28"/>
      <path d="M284 190 L275 232 L287 287" fill="none" stroke="#FF6B00" stroke-width="2.4" stroke-linecap="round" opacity="0.54"/>
      <path d="M301 194 L294 237 L292 288 L282 348 L276 390" fill="none" stroke="#FF6B00" stroke-width="1.2" stroke-linecap="round" opacity="0.49"/>
      <path d="M276 390 L268 420" fill="none" stroke="#FF6B00" stroke-width="0.7" stroke-linecap="round" opacity="0.34"/>
      <path d="M285 181 L293 235 L282 265" fill="none" stroke="#FF6B00" stroke-width="1.6" stroke-linecap="round" opacity="0.77"/>
      <path d="M237 174 L245 225 L242 281" fill="none" stroke="#FF6B00" stroke-width="1.8" stroke-linecap="round" opacity="0.62"/>
      <path d="M248 181 L249 237 L237 268 L250 305 L236 342" fill="none" stroke="#FF6B00" stroke-width="1.8" stroke-linecap="round" opacity="0.43"/>
      <path d="M236 342 L214 380" fill="none" stroke="#FF6B00" stroke-width="1.1" stroke-linecap="round" opacity="0.30"/>
      <path d="M266 166 L271 214 L265 245" fill="none" stroke="#FF6B00" stroke-width="2.2" stroke-linecap="round" opacity="0.51"/>
      <path d="M265 245 L268 281" fill="none" stroke="#FF6B00" stroke-width="1.3" stroke-linecap="round" opacity="0.36"/>
      <path d="M268 180 L256 211 L273 243 L288 299" fill="none" stroke="#FF6B00" stroke-width="2.0" stroke-linecap="round" opacity="0.48"/>
      <path d="M288 299 L263 327" fill="none" stroke="#FF6B00" stroke-width="1.2" stroke-linecap="round" opacity="0.34"/>
      <path d="M294 181 L282 234 L297 287 L299 334" fill="none" stroke="#FF6B00" stroke-width="1.1" stroke-linecap="round" opacity="0.55"/>
      <path d="M299 334 L304 349" fill="none" stroke="#FF6B00" stroke-width="0.7" stroke-linecap="round" opacity="0.39"/>
      <path d="M247 177 L227 225 L247 276 L241 310 L224 362" fill="none" stroke="#FF6B00" stroke-width="1.6" stroke-linecap="round" opacity="0.75"/>
      <path d="M210 172 L193 230 L192 272" fill="none" stroke="#FF6B00" stroke-width="1.9" stroke-linecap="round" opacity="0.69"/>
      <path d="M192 272 L197 308" fill="none" stroke="#FF6B00" stroke-width="1.1" stroke-linecap="round" opacity="0.48"/>
      
  </g>

  <path d="M256 233 L268 248 L256 263 L244 248Z" fill="none" stroke="#FF9500" stroke-width="1.5" opacity="0.6"/>

  <!-- Particles -->
  <circle cx="245" cy="337" r="2.9" fill="#FF6B00" opacity="0.41"/>
      <circle cx="293" cy="180" r="1.7" fill="#FF6B00" opacity="0.29"/>
      <circle cx="208" cy="177" r="2.5" fill="#FF6B00" opacity="0.39"/>
      <circle cx="244" cy="277" r="1.0" fill="#FF6B00" opacity="0.45"/>
      <circle cx="217" cy="315" r="1.0" fill="#FF6B00" opacity="0.42"/>
      <circle cx="279" cy="251" r="1.0" fill="#FF6B00" opacity="0.27"/>
      <circle cx="239" cy="253" r="2.2" fill="#FF6B00" opacity="0.28"/>
      <circle cx="186" cy="251" r="2.7" fill="#FF6B00" opacity="0.26"/>
      <circle cx="245" cy="342" r="1.7" fill="#FF6B00" opacity="0.30"/>
      <circle cx="252" cy="212" r="2.1" fill="#FF6B00" opacity="0.24"/>
      <circle cx="266" cy="245" r="1.7" fill="#FF6B00" opacity="0.33"/>
      <circle cx="291" cy="228" r="2.2" fill="#FF6B00" opacity="0.48"/>
      <circle cx="234" cy="215" r="2.5" fill="#FF6B00" opacity="0.38"/>
      <circle cx="284" cy="352" r="2.7" fill="#FF6B00" opacity="0.39"/>
      <circle cx="310" cy="227" r="2.2" fill="#FF6B00" opacity="0.47"/>
      

  <!-- Ambient glow at feet -->
  <ellipse cx="256" cy="349" rx="58" ry="15" fill="#FF4500" opacity="0.08" filter="url(#auraF)"/>

  <!-- Border ring -->
  <rect x="4" y="4" width="504" height="504" rx="16" fill="none" stroke="#FF6B00" stroke-width="1" opacity="0.1"/>
</svg>