<svg xmlns="http://www.w3.org/2000/svg" viewBox="0 0 512 512" width="512" height="512">
  <defs>
    <radialGradient id="bg"><stop offset="0%" stop-color="#1a0802"/><stop offset="100%" stop-color="#0d0604"/></radialGradient>
    <radialGradient id="aura" cx="50%" cy="40%" r="40%"><stop offset="0%" stop-color="#16A34A" stop-opacity="0.15"/><stop offset="100%" stop-color="#16A34A" stop-opacity="0"/></radialGradient>
    <linearGradient id="stone" x1="0" y1="0" x2="0" y2="1"><stop offset="0%" stop-color="#222"/><stop offset="100%" stop-color="#0a0a0a"/></linearGradient>
    <filter id="glow"><feGaussianBlur in="SourceGraphic" stdDeviation="4" result="b"/><feMerge><feMergeNode in="b"/><feMergeNode in="SourceGraphic"/></feMerge></filter>
    <filter id="auraF"><feGaussianBlur in="SourceGraphic" stdDeviation="10"/></filter>
  </defs>
  <rect width="512" height="512" fill="url(#bg)"/>
  <circle cx="256" cy="160" r="150" fill="url(#aura)"/>

  <!-- Body -->
  <path d="M208 130 L187 170 L192 353 L221.5 383 L290.5 383 L320 353 L325 170 L304 130Z" fill="url(#stone)" stroke="#1a1a1a" stroke-width="1"/>

  <!-- Shoulder pads -->
  <path d="M208 130 L188 145 L193 180 L208 180Z" fill="#161616"/>
  <path d="M304 130 L324 145 L319 180 L304 180Z" fill="#161616"/>

  <!-- Helm -->
  <path d="M256 70 L218 105 L203 65 L218 130 L294 130 L309 65 L294 105Z" fill="#181818" stroke="#222" stroke-width="1"/>

  <!-- Eyes -->
  <g fill="#22C55E" filter="url(#glow)">
    <circle cx="235" cy="115" r="7"/>
    <circle cx="277" cy="115" r="7"/>
  </g>
  <g fill="#86EFAC" opacity="0.7">
    <circle cx="235" cy="115" r="7"/>
    <circle cx="277" cy="115" r="7"/>
  </g>

  <!-- Energy veins -->
  <g filter="url(#glow)">
    <!-- Center spine -->
    <path d="M256 130 L254 200 L257 270 L255 343" fill="none" stroke="#22C55E" stroke-width="2" opacity="0.6"/>
    <path d="M252 159 L266 210 L267 240" fill="none" stroke="#22C55E" stroke-width="1.8" stroke-linecap="round" opacity="0.79"/>
      <path d="M267 240 L278 258" fill="none" stroke="#22C55E" stroke-width="1.1" stroke-linecap="round" opacity="0.55"/>
      <path d="M238 143 L229 203 L240 237 L247 279 L253 332" fill="none" stroke="#22C55E" stroke-width="1.8" stroke-linecap="round" opacity="0.71"/>
      <path d="M194 156 L188 194 L169 253 L187 313 L174 364" fill="none" stroke="#22C55E" stroke-width="2.3" stroke-linecap="round" opacity="0.38"/>
      <path d="M296 153 L280 207 L297 258 L283 305 L299 347" fill="none" stroke="#22C55E" stroke-width="2.0" stroke-linecap="round" opacity="0.41"/>
      <path d="M299 347 L319 382" fill="none" stroke="#22C55E" stroke-width="1.2" stroke-linecap="round" opacity="0.29"/>
      <path d="M323 150 L335 207 L352 263 L369 300" fill="none" stroke="#22C55E" stroke-width="1.3" stroke-linecap="round" opacity="0.42"/>
      
  </g>

  

  <!-- Particles -->
  

  <!-- Ambient glow at feet -->
  <ellipse cx="256" cy="388" rx="79" ry="15" fill="#16A34A" opacity="0.08" filter="url(#auraF)"/>

  <!-- Border ring -->
  <rect x="4" y="4" width="504" height="504" rx="16" fill="none" stroke="#22C55E" stroke-width="1" opacity="0.1"/>
</svg>