<svg xmlns="http://www.w3.org/2000/svg" viewBox="0 0 512 512" width="512" height="512">
  <defs>
    <radialGradient id="bg"><stop offset="0%" stop-color="#061018"/><stop offset="100%" stop-color="#040608"/></radialGradient>
    <radialGradient id="aura" cx="50%" cy="40%" r="40%"><stop offset="0%" stop-color="#16A34A" stop-opacity="0.15"/><stop offset="100%" stop-color="#16A34A" stop-opacity="0"/></radialGradient>
    <linearGradient id="stone" x1="0" y1="0" x2="0" y2="1"><stop offset="0%" stop-color="#222"/><stop offset="100%" stop-color="#0a0a0a"/></linearGradient>
    <filter id="glow"><feGaussianBlur in="SourceGraphic" stdDeviation="4" result="b"/><feMerge><feMergeNode in="b"/><feMergeNode in="SourceGraphic"/></feMerge></filter>
    <filter id="auraF"><feGaussianBlur in="SourceGraphic" stdDeviation="10"/></filter>
  </defs>
  <rect width="512" height="512" fill="url(#bg)"/>
  <circle cx="256" cy="143" r="150" fill="url(#aura)"/>

  <!-- Body -->
  <path d="M201 113 L178 153 L183 369 L217 399 L295 399 L329 369 L334 153 L311 113Z" fill="url(#stone)" stroke="#1a1a1a" stroke-width="1"/>

  <!-- Shoulder pads -->
  <path d="M201 113 L181 128 L186 163 L201 163Z" fill="#161616"/>
  <path d="M311 113 L331 128 L326 163 L311 163Z" fill="#161616"/>

  <!-- Helm -->
  <path d="M256 53 L213 88 L198 48 L213 113 L299 113 L314 48 L299 88Z" fill="#181818" stroke="#222" stroke-width="1"/>

  <!-- Eyes -->
  <g fill="#22C55E" filter="url(#glow)">
    <circle cx="232" cy="98" r="7"/>
    <circle cx="280" cy="98" r="7"/>
  </g>
  <g fill="#86EFAC" opacity="0.7">
    <circle cx="232" cy="98" r="7"/>
    <circle cx="280" cy="98" r="7"/>
  </g>

  <!-- Energy veins -->
  <g filter="url(#glow)">
    <!-- Center spine -->
    <path d="M256 113 L254 183 L257 253 L255 359" fill="none" stroke="#22C55E" stroke-width="2" opacity="0.6"/>
    <path d="M267 114 L252 154 L234 196" fill="none" stroke="#22C55E" stroke-width="2.1" stroke-linecap="round" opacity="0.31"/>
      <path d="M234 196 L213 224" fill="none" stroke="#22C55E" stroke-width="1.3" stroke-linecap="round" opacity="0.22"/>
      <path d="M251 119 L237 163 L240 200 L222 242 L231 279" fill="none" stroke="#22C55E" stroke-width="1.1" stroke-linecap="round" opacity="0.64"/>
      <path d="M231 279 L223 318" fill="none" stroke="#22C55E" stroke-width="0.7" stroke-linecap="round" opacity="0.45"/>
      <path d="M256 141 L257 198 L273 247 L256 299 L254 340" fill="none" stroke="#22C55E" stroke-width="2.0" stroke-linecap="round" opacity="0.74"/>
      <path d="M254 340 L272 362" fill="none" stroke="#22C55E" stroke-width="1.2" stroke-linecap="round" opacity="0.52"/>
      <path d="M264 107 L268 137 L272 194" fill="none" stroke="#22C55E" stroke-width="1.5" stroke-linecap="round" opacity="0.49"/>
      <path d="M272 194 L256 216" fill="none" stroke="#22C55E" stroke-width="0.9" stroke-linecap="round" opacity="0.34"/>
      <path d="M197 130 L202 166 L183 200 L201 232" fill="none" stroke="#22C55E" stroke-width="2.5" stroke-linecap="round" opacity="0.37"/>
      <path d="M201 232 L219 265" fill="none" stroke="#22C55E" stroke-width="1.5" stroke-linecap="round" opacity="0.26"/>
      <path d="M293 117 L285 176 L281 232 L264 273" fill="none" stroke="#22C55E" stroke-width="1.3" stroke-linecap="round" opacity="0.69"/>
      <path d="M292 132 L285 174 L293 211" fill="none" stroke="#22C55E" stroke-width="1.4" stroke-linecap="round" opacity="0.32"/>
      <path d="M293 211 L315 239" fill="none" stroke="#22C55E" stroke-width="0.8" stroke-linecap="round" opacity="0.22"/>
      <path d="M302 140 L314 172 L303 229 L319 284 L314 339" fill="none" stroke="#22C55E" stroke-width="1.1" stroke-linecap="round" opacity="0.41"/>
      <path d="M190 108 L188 145 L176 179 L185 226 L167 278" fill="none" stroke="#22C55E" stroke-width="1.0" stroke-linecap="round" opacity="0.40"/>
      <path d="M167 278 L164 294" fill="none" stroke="#22C55E" stroke-width="0.6" stroke-linecap="round" opacity="0.28"/>
      <path d="M305 132 L320 173 L301 231 L300 263 L295 306" fill="none" stroke="#22C55E" stroke-width="1.9" stroke-linecap="round" opacity="0.78"/>
      <path d="M304 143 L307 175 L304 218 L289 276 L294 307" fill="none" stroke="#22C55E" stroke-width="1.1" stroke-linecap="round" opacity="0.70"/>
      <path d="M294 307 L305 337" fill="none" stroke="#22C55E" stroke-width="0.7" stroke-linecap="round" opacity="0.49"/>
      <path d="M252 112 L242 167 L255 206 L254 253 L247 296" fill="none" stroke="#22C55E" stroke-width="2.2" stroke-linecap="round" opacity="0.73"/>
      
  </g>

  <path d="M256 178 L268 193 L256 208 L244 193Z" fill="none" stroke="#86EFAC" stroke-width="1.5" opacity="0.6"/>

  <!-- Particles -->
  <circle cx="231" cy="316" r="2.9" fill="#22C55E" opacity="0.20"/>
      <circle cx="348" cy="132" r="1.5" fill="#22C55E" opacity="0.16"/>
      <circle cx="356" cy="118" r="1.2" fill="#22C55E" opacity="0.41"/>
      <circle cx="179" cy="367" r="1.1" fill="#22C55E" opacity="0.41"/>
      <circle cx="285" cy="111" r="2.3" fill="#22C55E" opacity="0.48"/>
      <circle cx="219" cy="173" r="2.6" fill="#22C55E" opacity="0.29"/>
      <circle cx="170" cy="284" r="2.5" fill="#22C55E" opacity="0.20"/>
      <circle cx="302" cy="124" r="1.1" fill="#22C55E" opacity="0.15"/>
      <circle cx="172" cy="371" r="3.0" fill="#22C55E" opacity="0.47"/>
      <circle cx="179" cy="398" r="1.2" fill="#22C55E" opacity="0.49"/>
      <circle cx="254" cy="142" r="2.4" fill="#22C55E" opacity="0.46"/>
      <circle cx="232" cy="93" r="2.8" fill="#22C55E" opacity="0.26"/>
      <circle cx="356" cy="204" r="2.2" fill="#22C55E" opacity="0.21"/>
      <circle cx="192" cy="272" r="2.4" fill="#22C55E" opacity="0.22"/>
      <circle cx="322" cy="100" r="1.2" fill="#22C55E" opacity="0.32"/>
      

  <!-- Ambient glow at feet -->
  <ellipse cx="256" cy="404" rx="88" ry="15" fill="#16A34A" opacity="0.08" filter="url(#auraF)"/>

  <!-- Border ring -->
  <rect x="4" y="4" width="504" height="504" rx="16" fill="none" stroke="#22C55E" stroke-width="1" opacity="0.1"/>
</svg>