<svg xmlns="http://www.w3.org/2000/svg" viewBox="0 0 512 512" width="512" height="512">
  <defs>
    <radialGradient id="bg"><stop offset="0%" stop-color="#161412"/><stop offset="100%" stop-color="#0a0908"/></radialGradient>
    <radialGradient id="aura" cx="50%" cy="40%" r="40%"><stop offset="0%" stop-color="#0891B2" stop-opacity="0.15"/><stop offset="100%" stop-color="#0891B2" stop-opacity="0"/></radialGradient>
    <linearGradient id="stone" x1="0" y1="0" x2="0" y2="1"><stop offset="0%" stop-color="#222"/><stop offset="100%" stop-color="#0a0a0a"/></linearGradient>
    <filter id="glow"><feGaussianBlur in="SourceGraphic" stdDeviation="4" result="b"/><feMerge><feMergeNode in="b"/><feMergeNode in="SourceGraphic"/></feMerge></filter>
    <filter id="auraF"><feGaussianBlur in="SourceGraphic" stdDeviation="10"/></filter>
  </defs>
  <rect width="512" height="512" fill="url(#bg)"/>
  <circle cx="256" cy="176" r="150" fill="url(#aura)"/>

  <!-- Body -->
  <path d="M214 146 L196 186 L201 336 L226 366 L286 366 L311 336 L316 186 L298 146Z" fill="url(#stone)" stroke="#1a1a1a" stroke-width="1"/>

  <!-- Shoulder pads -->
  <path d="M214 146 L194 161 L199 196 L214 196Z" fill="#161616"/>
  <path d="M298 146 L318 161 L313 196 L298 196Z" fill="#161616"/>

  <!-- Helm -->
  <path d="M256 86 L223 121 L208 81 L223 146 L289 146 L304 81 L289 121Z" fill="#181818" stroke="#222" stroke-width="1"/>

  <!-- Eyes -->
  <g fill="#06B6D4" filter="url(#glow)">
    <circle cx="238" cy="131" r="7"/>
    <circle cx="274" cy="131" r="7"/>
  </g>
  <g fill="#67E8F9" opacity="0.7">
    <circle cx="238" cy="131" r="7"/>
    <circle cx="274" cy="131" r="7"/>
  </g>

  <!-- Energy veins -->
  <g filter="url(#glow)">
    <!-- Center spine -->
    <path d="M256 146 L254 216 L257 286 L255 326" fill="none" stroke="#06B6D4" stroke-width="2" opacity="0.6"/>
    <path d="M273 152 L281 205 L296 250 L279 298 L264 334" fill="none" stroke="#06B6D4" stroke-width="1.8" stroke-linecap="round" opacity="0.72"/>
      <path d="M264 334 L267 351" fill="none" stroke="#06B6D4" stroke-width="1.1" stroke-linecap="round" opacity="0.50"/>
      <path d="M250 137 L239 170 L252 228 L252 288 L246 347" fill="none" stroke="#06B6D4" stroke-width="2.0" stroke-linecap="round" opacity="0.75"/>
      <path d="M209 168 L207 220 L211 268 L218 300" fill="none" stroke="#06B6D4" stroke-width="2.3" stroke-linecap="round" opacity="0.35"/>
      <path d="M222 161 L238 209 L234 259 L225 290 L206 330" fill="none" stroke="#06B6D4" stroke-width="2.5" stroke-linecap="round" opacity="0.36"/>
      <path d="M232 172 L215 224 L218 262 L217 298" fill="none" stroke="#06B6D4" stroke-width="2.4" stroke-linecap="round" opacity="0.66"/>
      <path d="M217 298 L203 334" fill="none" stroke="#06B6D4" stroke-width="1.4" stroke-linecap="round" opacity="0.46"/>
      <path d="M221 140 L210 171 L215 201 L212 260" fill="none" stroke="#06B6D4" stroke-width="1.6" stroke-linecap="round" opacity="0.51"/>
      <path d="M212 260 L206 293" fill="none" stroke="#06B6D4" stroke-width="1.0" stroke-linecap="round" opacity="0.36"/>
      <path d="M308 176 L317 226 L313 263" fill="none" stroke="#06B6D4" stroke-width="1.7" stroke-linecap="round" opacity="0.53"/>
      <path d="M233 160 L227 192 L223 247 L234 278 L225 332" fill="none" stroke="#06B6D4" stroke-width="1.8" stroke-linecap="round" opacity="0.31"/>
      <path d="M289 170 L276 224 L278 265" fill="none" stroke="#06B6D4" stroke-width="2.2" stroke-linecap="round" opacity="0.79"/>
      <path d="M278 265 L283 280" fill="none" stroke="#06B6D4" stroke-width="1.3" stroke-linecap="round" opacity="0.55"/>
      <path d="M271 154 L255 208 L251 260 L244 304" fill="none" stroke="#06B6D4" stroke-width="1.0" stroke-linecap="round" opacity="0.50"/>
      <path d="M243 167 L241 213 L232 259 L229 306 L229 344" fill="none" stroke="#06B6D4" stroke-width="1.1" stroke-linecap="round" opacity="0.55"/>
      <path d="M229 344 L204 367" fill="none" stroke="#06B6D4" stroke-width="0.7" stroke-linecap="round" opacity="0.39"/>
      <path d="M216 153 L213 192 L194 227" fill="none" stroke="#06B6D4" stroke-width="1.9" stroke-linecap="round" opacity="0.46"/>
      
  </g>

  

  <!-- Particles -->
  <circle cx="310" cy="366" r="2.1" fill="#06B6D4" opacity="0.41"/>
      <circle cx="288" cy="317" r="2.0" fill="#06B6D4" opacity="0.36"/>
      <circle cx="344" cy="230" r="2.1" fill="#06B6D4" opacity="0.35"/>
      <circle cx="317" cy="256" r="2.4" fill="#06B6D4" opacity="0.43"/>
      <circle cx="311" cy="123" r="2.1" fill="#06B6D4" opacity="0.16"/>
      <circle cx="289" cy="242" r="1.2" fill="#06B6D4" opacity="0.37"/>
      <circle cx="255" cy="143" r="1.8" fill="#06B6D4" opacity="0.50"/>
      <circle cx="300" cy="99" r="2.6" fill="#06B6D4" opacity="0.17"/>
      <circle cx="259" cy="110" r="2.8" fill="#06B6D4" opacity="0.18"/>
      <circle cx="288" cy="112" r="2.3" fill="#06B6D4" opacity="0.29"/>
      <circle cx="296" cy="261" r="3.0" fill="#06B6D4" opacity="0.21"/>
      <circle cx="263" cy="376" r="1.3" fill="#06B6D4" opacity="0.21"/>
      <circle cx="275" cy="293" r="1.6" fill="#06B6D4" opacity="0.50"/>
      <circle cx="220" cy="129" r="1.9" fill="#06B6D4" opacity="0.22"/>
      <circle cx="178" cy="157" r="2.7" fill="#06B6D4" opacity="0.19"/>
      

  <!-- Ambient glow at feet -->
  <ellipse cx="256" cy="371" rx="70" ry="15" fill="#0891B2" opacity="0.08" filter="url(#auraF)"/>

  <!-- Border ring -->
  <rect x="4" y="4" width="504" height="504" rx="16" fill="none" stroke="#06B6D4" stroke-width="1" opacity="0.1"/>
</svg>