<svg xmlns="http://www.w3.org/2000/svg" viewBox="0 0 512 512" width="512" height="512">
  <defs>
    <radialGradient id="bg"><stop offset="0%" stop-color="#161412"/><stop offset="100%" stop-color="#0a0908"/></radialGradient>
    <radialGradient id="aura" cx="50%" cy="40%" r="40%"><stop offset="0%" stop-color="#0891B2" stop-opacity="0.15"/><stop offset="100%" stop-color="#0891B2" stop-opacity="0"/></radialGradient>
    <linearGradient id="stone" x1="0" y1="0" x2="0" y2="1"><stop offset="0%" stop-color="#222"/><stop offset="100%" stop-color="#0a0a0a"/></linearGradient>
    <filter id="glow"><feGaussianBlur in="SourceGraphic" stdDeviation="4" result="b"/><feMerge><feMergeNode in="b"/><feMergeNode in="SourceGraphic"/></feMerge></filter>
    <filter id="auraF"><feGaussianBlur in="SourceGraphic" stdDeviation="10"/></filter>
  </defs>
  <rect width="512" height="512" fill="url(#bg)"/>
  <circle cx="256" cy="198" r="150" fill="url(#aura)"/>

  <!-- Body -->
  <path d="M222 168 L208 208 L213 314 L232 344 L280 344 L299 314 L304 208 L290 168Z" fill="url(#stone)" stroke="#1a1a1a" stroke-width="1"/>

  <!-- Shoulder pads -->
  <path d="M222 168 L202 183 L207 218 L222 218Z" fill="#161616"/>
  <path d="M290 168 L310 183 L305 218 L290 218Z" fill="#161616"/>

  <!-- Helm -->
  <path d="M256 98 L230 138 L235 168 L277 168 L282 138Z" fill="#181818" stroke="#222" stroke-width="1"/>

  <!-- Eyes -->
  <g fill="#06B6D4" filter="url(#glow)">
    <path d="M242 145 L250 153 L242 161 L234 153Z"/>
    <path d="M270 145 L278 153 L270 161 L262 153Z"/>
  </g>
  <g fill="#67E8F9" opacity="0.7">
    <path d="M242 145 L250 153 L242 161 L234 153Z"/>
    <path d="M270 145 L278 153 L270 161 L262 153Z"/>
  </g>

  <!-- Energy veins -->
  <g filter="url(#glow)">
    <!-- Center spine -->
    <path d="M256 168 L254 238 L257 308 L255 304" fill="none" stroke="#06B6D4" stroke-width="2" opacity="0.6"/>
    <path d="M247 186 L237 237 L242 296 L243 345" fill="none" stroke="#06B6D4" stroke-width="1.5" stroke-linecap="round" opacity="0.38"/>
      <path d="M248 198 L260 238 L243 271" fill="none" stroke="#06B6D4" stroke-width="1.6" stroke-linecap="round" opacity="0.58"/>
      <path d="M273 193 L277 247 L274 294 L290 347" fill="none" stroke="#06B6D4" stroke-width="2.1" stroke-linecap="round" opacity="0.60"/>
      <path d="M290 347 L308 371" fill="none" stroke="#06B6D4" stroke-width="1.3" stroke-linecap="round" opacity="0.42"/>
      <path d="M248 187 L231 219 L212 259 L194 308" fill="none" stroke="#06B6D4" stroke-width="1.1" stroke-linecap="round" opacity="0.76"/>
      <path d="M194 308 L200 334" fill="none" stroke="#06B6D4" stroke-width="0.7" stroke-linecap="round" opacity="0.53"/>
      <path d="M224 173 L208 212 L195 250 L205 304" fill="none" stroke="#06B6D4" stroke-width="2.1" stroke-linecap="round" opacity="0.53"/>
      <path d="M205 304 L221 329" fill="none" stroke="#06B6D4" stroke-width="1.3" stroke-linecap="round" opacity="0.37"/>
      
  </g>

  

  <!-- Particles -->
  

  <!-- Ambient glow at feet -->
  <ellipse cx="256" cy="349" rx="58" ry="15" fill="#0891B2" opacity="0.08" filter="url(#auraF)"/>

  <!-- Border ring -->
  <rect x="4" y="4" width="504" height="504" rx="16" fill="none" stroke="#06B6D4" stroke-width="1" opacity="0.1"/>
</svg>