<svg xmlns="http://www.w3.org/2000/svg" viewBox="0 0 512 512" width="512" height="512">
  <defs>
    <radialGradient id="bg"><stop offset="0%" stop-color="#061018"/><stop offset="100%" stop-color="#040608"/></radialGradient>
    <radialGradient id="aura" cx="50%" cy="40%" r="40%"><stop offset="0%" stop-color="#FF4500" stop-opacity="0.15"/><stop offset="100%" stop-color="#FF4500" stop-opacity="0"/></radialGradient>
    <linearGradient id="stone" x1="0" y1="0" x2="0" y2="1"><stop offset="0%" stop-color="#222"/><stop offset="100%" stop-color="#0a0a0a"/></linearGradient>
    <filter id="glow"><feGaussianBlur in="SourceGraphic" stdDeviation="4" result="b"/><feMerge><feMergeNode in="b"/><feMergeNode in="SourceGraphic"/></feMerge></filter>
    <filter id="auraF"><feGaussianBlur in="SourceGraphic" stdDeviation="10"/></filter>
  </defs>
  <rect width="512" height="512" fill="url(#bg)"/>
  <circle cx="256" cy="198" r="150" fill="url(#aura)"/>

  <!-- Body -->
  <path d="M222 168 L208 208 L213 314 L232 344 L280 344 L299 314 L304 208 L290 168Z" fill="url(#stone)" stroke="#1a1a1a" stroke-width="1"/>

  <!-- Shoulder pads -->
  <path d="M222 168 L202 183 L207 218 L222 218Z" fill="#161616"/>
  <path d="M290 168 L310 183 L305 218 L290 218Z" fill="#161616"/>

  <!-- Helm -->
  <path d="M235 113 L243 128 L256 108 L269 128 L277 113 L282 143 L282 168 L230 168 L230 143Z" fill="#181818" stroke="#222" stroke-width="1"/>

  <!-- Eyes -->
  <g fill="#FF6B00" filter="url(#glow)">
    <circle cx="242" cy="153" r="7"/>
    <circle cx="270" cy="153" r="7"/>
  </g>
  <g fill="#FF9500" opacity="0.7">
    <circle cx="242" cy="153" r="7"/>
    <circle cx="270" cy="153" r="7"/>
  </g>

  <!-- Energy veins -->
  <g filter="url(#glow)">
    <!-- Center spine -->
    <path d="M256 168 L254 238 L257 308 L255 304" fill="none" stroke="#FF6B00" stroke-width="2" opacity="0.6"/>
    <path d="M294 190 L298 221 L310 251 L304 298" fill="none" stroke="#FF6B00" stroke-width="1.5" stroke-linecap="round" opacity="0.64"/>
      <path d="M228 198 L225 242 L237 284 L241 328" fill="none" stroke="#FF6B00" stroke-width="1.8" stroke-linecap="round" opacity="0.45"/>
      <path d="M241 170 L243 225 L251 280" fill="none" stroke="#FF6B00" stroke-width="1.5" stroke-linecap="round" opacity="0.40"/>
      <path d="M264 176 L262 233 L253 291 L234 347 L253 407" fill="none" stroke="#FF6B00" stroke-width="2.3" stroke-linecap="round" opacity="0.30"/>
      <path d="M211 178 L227 223 L225 280 L228 319 L228 371" fill="none" stroke="#FF6B00" stroke-width="1.5" stroke-linecap="round" opacity="0.32"/>
      <path d="M228 371 L239 402" fill="none" stroke="#FF6B00" stroke-width="0.9" stroke-linecap="round" opacity="0.22"/>
      <path d="M266 177 L260 216 L252 276 L260 323" fill="none" stroke="#FF6B00" stroke-width="1.7" stroke-linecap="round" opacity="0.53"/>
      <path d="M284 159 L290 218 L273 254 L277 313 L288 369" fill="none" stroke="#FF6B00" stroke-width="1.3" stroke-linecap="round" opacity="0.74"/>
      <path d="M220 186 L239 240 L221 279 L232 319" fill="none" stroke="#FF6B00" stroke-width="1.6" stroke-linecap="round" opacity="0.63"/>
      <path d="M232 319 L242 352" fill="none" stroke="#FF6B00" stroke-width="1.0" stroke-linecap="round" opacity="0.44"/>
      <path d="M221 185 L202 220 L211 265 L203 300" fill="none" stroke="#FF6B00" stroke-width="2.0" stroke-linecap="round" opacity="0.44"/>
      <path d="M203 300 L212 335" fill="none" stroke="#FF6B00" stroke-width="1.2" stroke-linecap="round" opacity="0.31"/>
      <path d="M235 159 L216 197 L210 238" fill="none" stroke="#FF6B00" stroke-width="1.9" stroke-linecap="round" opacity="0.56"/>
      <path d="M289 173 L304 231 L308 271" fill="none" stroke="#FF6B00" stroke-width="2.3" stroke-linecap="round" opacity="0.33"/>
      <path d="M258 161 L243 206 L225 264 L206 294" fill="none" stroke="#FF6B00" stroke-width="1.7" stroke-linecap="round" opacity="0.32"/>
      <path d="M206 294 L208 312" fill="none" stroke="#FF6B00" stroke-width="1.0" stroke-linecap="round" opacity="0.22"/>
      
  </g>

  

  <!-- Particles -->
  <circle cx="205" cy="330" r="2.3" fill="#FF6B00" opacity="0.30"/>
      <circle cx="223" cy="234" r="1.8" fill="#FF6B00" opacity="0.34"/>
      <circle cx="326" cy="174" r="2.5" fill="#FF6B00" opacity="0.27"/>
      <circle cx="274" cy="178" r="2.5" fill="#FF6B00" opacity="0.16"/>
      <circle cx="188" cy="280" r="1.0" fill="#FF6B00" opacity="0.35"/>
      <circle cx="234" cy="185" r="1.3" fill="#FF6B00" opacity="0.19"/>
      <circle cx="217" cy="282" r="2.4" fill="#FF6B00" opacity="0.27"/>
      <circle cx="188" cy="196" r="2.3" fill="#FF6B00" opacity="0.24"/>
      <circle cx="213" cy="331" r="2.8" fill="#FF6B00" opacity="0.22"/>
      <circle cx="209" cy="228" r="1.3" fill="#FF6B00" opacity="0.29"/>
      <circle cx="206" cy="317" r="2.5" fill="#FF6B00" opacity="0.38"/>
      <circle cx="196" cy="135" r="2.7" fill="#FF6B00" opacity="0.16"/>
      <circle cx="207" cy="123" r="1.4" fill="#FF6B00" opacity="0.23"/>
      <circle cx="318" cy="228" r="1.0" fill="#FF6B00" opacity="0.48"/>
      <circle cx="266" cy="328" r="1.2" fill="#FF6B00" opacity="0.23"/>
      

  <!-- Ambient glow at feet -->
  <ellipse cx="256" cy="349" rx="58" ry="15" fill="#FF4500" opacity="0.08" filter="url(#auraF)"/>

  <!-- Border ring -->
  <rect x="4" y="4" width="504" height="504" rx="16" fill="none" stroke="#FF6B00" stroke-width="1" opacity="0.1"/>
</svg>