<svg xmlns="http://www.w3.org/2000/svg" viewBox="0 0 512 512" width="512" height="512">
  <defs>
    <radialGradient id="bg"><stop offset="0%" stop-color="#161412"/><stop offset="100%" stop-color="#0a0908"/></radialGradient>
    <radialGradient id="aura" cx="50%" cy="40%" r="40%"><stop offset="0%" stop-color="#7C3AED" stop-opacity="0.15"/><stop offset="100%" stop-color="#7C3AED" stop-opacity="0"/></radialGradient>
    <linearGradient id="stone" x1="0" y1="0" x2="0" y2="1"><stop offset="0%" stop-color="#222"/><stop offset="100%" stop-color="#0a0a0a"/></linearGradient>
    <filter id="glow"><feGaussianBlur in="SourceGraphic" stdDeviation="4" result="b"/><feMerge><feMergeNode in="b"/><feMergeNode in="SourceGraphic"/></feMerge></filter>
    <filter id="auraF"><feGaussianBlur in="SourceGraphic" stdDeviation="10"/></filter>
  </defs>
  <rect width="512" height="512" fill="url(#bg)"/>
  <circle cx="256" cy="198" r="150" fill="url(#aura)"/>

  <!-- Body -->
  <path d="M222 168 L208 208 L213 314 L232 344 L280 344 L299 314 L304 208 L290 168Z" fill="url(#stone)" stroke="#1a1a1a" stroke-width="1"/>

  <!-- Shoulder pads -->
  <path d="M222 168 L202 183 L207 218 L222 218Z" fill="#161616"/>
  <path d="M290 168 L310 183 L305 218 L290 218Z" fill="#161616"/>

  <!-- Helm -->
  <path d="M235 113 L243 128 L256 108 L269 128 L277 113 L282 143 L282 168 L230 168 L230 143Z" fill="#181818" stroke="#222" stroke-width="1"/>

  <!-- Eyes -->
  <g fill="#8B5CF6" filter="url(#glow)">
    <circle cx="242" cy="153" r="7"/>
    <circle cx="270" cy="153" r="7"/>
  </g>
  <g fill="#A78BFA" opacity="0.7">
    <circle cx="242" cy="153" r="7"/>
    <circle cx="270" cy="153" r="7"/>
  </g>

  <!-- Energy veins -->
  <g filter="url(#glow)">
    <!-- Center spine -->
    <path d="M256 168 L254 238 L257 308 L255 304" fill="none" stroke="#8B5CF6" stroke-width="2" opacity="0.6"/>
    <path d="M297 171 L278 205 L289 265 L306 300 L311 345" fill="none" stroke="#8B5CF6" stroke-width="2.3" stroke-linecap="round" opacity="0.72"/>
      <path d="M311 345 L300 381" fill="none" stroke="#8B5CF6" stroke-width="1.4" stroke-linecap="round" opacity="0.50"/>
      <path d="M243 182 L261 221 L260 259" fill="none" stroke="#8B5CF6" stroke-width="1.3" stroke-linecap="round" opacity="0.65"/>
      <path d="M260 259 L249 287" fill="none" stroke="#8B5CF6" stroke-width="0.8" stroke-linecap="round" opacity="0.45"/>
      <path d="M267 172 L247 220 L262 263 L247 313 L263 358" fill="none" stroke="#8B5CF6" stroke-width="2.2" stroke-linecap="round" opacity="0.61"/>
      <path d="M263 358 L241 386" fill="none" stroke="#8B5CF6" stroke-width="1.3" stroke-linecap="round" opacity="0.43"/>
      <path d="M239 176 L236 208 L225 243 L222 302" fill="none" stroke="#8B5CF6" stroke-width="2.0" stroke-linecap="round" opacity="0.41"/>
      <path d="M303 158 L297 197 L277 232 L297 287" fill="none" stroke="#8B5CF6" stroke-width="2.4" stroke-linecap="round" opacity="0.51"/>
      
  </g>

  

  <!-- Particles -->
  

  <!-- Ambient glow at feet -->
  <ellipse cx="256" cy="349" rx="58" ry="15" fill="#7C3AED" opacity="0.08" filter="url(#auraF)"/>

  <!-- Border ring -->
  <rect x="4" y="4" width="504" height="504" rx="16" fill="none" stroke="#8B5CF6" stroke-width="1" opacity="0.1"/>
</svg>