<svg xmlns="http://www.w3.org/2000/svg" viewBox="0 0 512 512" width="512" height="512">
  <defs>
    <radialGradient id="bg"><stop offset="0%" stop-color="#120a04"/><stop offset="100%" stop-color="#080604"/></radialGradient>
    <radialGradient id="aura" cx="50%" cy="40%" r="40%"><stop offset="0%" stop-color="#FF4500" stop-opacity="0.15"/><stop offset="100%" stop-color="#FF4500" stop-opacity="0"/></radialGradient>
    <linearGradient id="stone" x1="0" y1="0" x2="0" y2="1"><stop offset="0%" stop-color="#222"/><stop offset="100%" stop-color="#0a0a0a"/></linearGradient>
    <filter id="glow"><feGaussianBlur in="SourceGraphic" stdDeviation="4" result="b"/><feMerge><feMergeNode in="b"/><feMergeNode in="SourceGraphic"/></feMerge></filter>
    <filter id="auraF"><feGaussianBlur in="SourceGraphic" stdDeviation="10"/></filter>
  </defs>
  <rect width="512" height="512" fill="url(#bg)"/>
  <circle cx="256" cy="176" r="150" fill="url(#aura)"/>

  <!-- Body -->
  <path d="M214 146 L196 186 L201 336 L226 366 L286 366 L311 336 L316 186 L298 146Z" fill="url(#stone)" stroke="#1a1a1a" stroke-width="1"/>

  <!-- Shoulder pads -->
  <path d="M214 146 L194 161 L199 196 L214 196Z" fill="#161616"/>
  <path d="M298 146 L318 161 L313 196 L298 196Z" fill="#161616"/>

  <!-- Helm -->
  <path d="M223 106 L223 146 L289 146 L289 106Z" fill="#181818" stroke="#222" stroke-width="1"/>

  <!-- Eyes -->
  <g fill="#FF6B00" filter="url(#glow)">
    <path d="M230 131 L238 128 L246 131 L238 134Z"/>
    <path d="M266 131 L274 128 L282 131 L274 134Z"/>
  </g>
  <g fill="#FF9500" opacity="0.7">
    <path d="M230 131 L238 128 L246 131 L238 134Z"/>
    <path d="M266 131 L274 128 L282 131 L274 134Z"/>
  </g>

  <!-- Energy veins -->
  <g filter="url(#glow)">
    <!-- Center spine -->
    <path d="M256 146 L254 216 L257 286 L255 326" fill="none" stroke="#FF6B00" stroke-width="2" opacity="0.6"/>
    <path d="M217 153 L208 209 L212 241 L227 293 L220 348" fill="none" stroke="#FF6B00" stroke-width="1.2" stroke-linecap="round" opacity="0.74"/>
      <path d="M226 168 L213 215 L225 253" fill="none" stroke="#FF6B00" stroke-width="2.0" stroke-linecap="round" opacity="0.75"/>
      <path d="M225 253 L243 273" fill="none" stroke="#FF6B00" stroke-width="1.2" stroke-linecap="round" opacity="0.52"/>
      <path d="M201 168 L195 219 L185 268 L186 317 L171 376" fill="none" stroke="#FF6B00" stroke-width="1.5" stroke-linecap="round" opacity="0.62"/>
      <path d="M171 376 L194 413" fill="none" stroke="#FF6B00" stroke-width="0.9" stroke-linecap="round" opacity="0.43"/>
      <path d="M238 160 L228 205 L218 238 L220 281" fill="none" stroke="#FF6B00" stroke-width="2.5" stroke-linecap="round" opacity="0.35"/>
      <path d="M267 159 L271 201 L254 260 L237 313" fill="none" stroke="#FF6B00" stroke-width="1.5" stroke-linecap="round" opacity="0.67"/>
      <path d="M283 157 L268 197 L254 232 L254 283" fill="none" stroke="#FF6B00" stroke-width="1.6" stroke-linecap="round" opacity="0.47"/>
      <path d="M246 160 L264 192 L251 249 L238 304 L247 334" fill="none" stroke="#FF6B00" stroke-width="1.1" stroke-linecap="round" opacity="0.75"/>
      <path d="M262 142 L251 192 L250 228" fill="none" stroke="#FF6B00" stroke-width="1.8" stroke-linecap="round" opacity="0.57"/>
      <path d="M250 228 L273 259" fill="none" stroke="#FF6B00" stroke-width="1.1" stroke-linecap="round" opacity="0.40"/>
      <path d="M311 148 L291 187 L303 232" fill="none" stroke="#FF6B00" stroke-width="1.0" stroke-linecap="round" opacity="0.70"/>
      <path d="M247 161 L255 221 L271 253 L268 295" fill="none" stroke="#FF6B00" stroke-width="2.2" stroke-linecap="round" opacity="0.56"/>
      <path d="M268 295 L253 334" fill="none" stroke="#FF6B00" stroke-width="1.3" stroke-linecap="round" opacity="0.39"/>
      <path d="M234 159 L241 218 L257 261 L244 309 L255 364" fill="none" stroke="#FF6B00" stroke-width="1.5" stroke-linecap="round" opacity="0.58"/>
      <path d="M255 364 L270 393" fill="none" stroke="#FF6B00" stroke-width="0.9" stroke-linecap="round" opacity="0.41"/>
      <path d="M196 147 L177 190 L165 230 L150 268" fill="none" stroke="#FF6B00" stroke-width="2.0" stroke-linecap="round" opacity="0.35"/>
      <path d="M150 268 L166 304" fill="none" stroke="#FF6B00" stroke-width="1.2" stroke-linecap="round" opacity="0.24"/>
      
  </g>

  <path d="M256 211 L268 226 L256 241 L244 226Z" fill="none" stroke="#FF9500" stroke-width="1.5" opacity="0.6"/>

  <!-- Particles -->
  <circle cx="309" cy="125" r="2.7" fill="#FF6B00" opacity="0.39"/>
      <circle cx="327" cy="182" r="1.8" fill="#FF6B00" opacity="0.33"/>
      <circle cx="322" cy="216" r="1.3" fill="#FF6B00" opacity="0.36"/>
      <circle cx="290" cy="236" r="2.8" fill="#FF6B00" opacity="0.41"/>
      <circle cx="237" cy="331" r="2.1" fill="#FF6B00" opacity="0.40"/>
      <circle cx="336" cy="287" r="1.9" fill="#FF6B00" opacity="0.22"/>
      <circle cx="226" cy="184" r="1.4" fill="#FF6B00" opacity="0.28"/>
      <circle cx="294" cy="229" r="2.0" fill="#FF6B00" opacity="0.39"/>
      <circle cx="241" cy="370" r="2.4" fill="#FF6B00" opacity="0.19"/>
      <circle cx="262" cy="234" r="2.6" fill="#FF6B00" opacity="0.44"/>
      <circle cx="281" cy="348" r="1.3" fill="#FF6B00" opacity="0.37"/>
      <circle cx="219" cy="310" r="1.2" fill="#FF6B00" opacity="0.25"/>
      <circle cx="307" cy="191" r="1.3" fill="#FF6B00" opacity="0.33"/>
      <circle cx="200" cy="270" r="2.7" fill="#FF6B00" opacity="0.45"/>
      <circle cx="192" cy="130" r="1.4" fill="#FF6B00" opacity="0.46"/>
      

  <!-- Ambient glow at feet -->
  <ellipse cx="256" cy="371" rx="70" ry="15" fill="#FF4500" opacity="0.08" filter="url(#auraF)"/>

  <!-- Border ring -->
  <rect x="4" y="4" width="504" height="504" rx="16" fill="none" stroke="#FF6B00" stroke-width="1" opacity="0.1"/>
</svg>