<svg xmlns="http://www.w3.org/2000/svg" viewBox="0 0 512 512" width="512" height="512">
  <defs>
    <radialGradient id="bg"><stop offset="0%" stop-color="#120a04"/><stop offset="100%" stop-color="#080604"/></radialGradient>
    <radialGradient id="aura" cx="50%" cy="40%" r="40%"><stop offset="0%" stop-color="#7C3AED" stop-opacity="0.15"/><stop offset="100%" stop-color="#7C3AED" stop-opacity="0"/></radialGradient>
    <linearGradient id="stone" x1="0" y1="0" x2="0" y2="1"><stop offset="0%" stop-color="#222"/><stop offset="100%" stop-color="#0a0a0a"/></linearGradient>
    <filter id="glow"><feGaussianBlur in="SourceGraphic" stdDeviation="4" result="b"/><feMerge><feMergeNode in="b"/><feMergeNode in="SourceGraphic"/></feMerge></filter>
    <filter id="auraF"><feGaussianBlur in="SourceGraphic" stdDeviation="10"/></filter>
  </defs>
  <rect width="512" height="512" fill="url(#bg)"/>
  <circle cx="256" cy="176" r="150" fill="url(#aura)"/>

  <!-- Body -->
  <path d="M214 146 L196 186 L201 336 L226 366 L286 366 L311 336 L316 186 L298 146Z" fill="url(#stone)" stroke="#1a1a1a" stroke-width="1"/>

  <!-- Shoulder pads -->
  <path d="M214 146 L194 161 L199 196 L214 196Z" fill="#161616"/>
  <path d="M298 146 L318 161 L313 196 L298 196Z" fill="#161616"/>

  <!-- Helm -->
  <path d="M256 66 L233 111 L223 146 L289 146 L279 111Z" fill="#181818" stroke="#222" stroke-width="1"/>

  <!-- Eyes -->
  <g fill="#8B5CF6" filter="url(#glow)">
    <path d="M238 123 L246 131 L238 139 L230 131Z"/>
    <path d="M274 123 L282 131 L274 139 L266 131Z"/>
  </g>
  <g fill="#A78BFA" opacity="0.7">
    <path d="M238 123 L246 131 L238 139 L230 131Z"/>
    <path d="M274 123 L282 131 L274 139 L266 131Z"/>
  </g>

  <!-- Energy veins -->
  <g filter="url(#glow)">
    <!-- Center spine -->
    <path d="M256 146 L254 216 L257 286 L255 326" fill="none" stroke="#8B5CF6" stroke-width="2" opacity="0.6"/>
    <path d="M231 142 L238 175 L227 205" fill="none" stroke="#8B5CF6" stroke-width="2.2" stroke-linecap="round" opacity="0.76"/>
      <path d="M231 143 L221 183 L234 220 L250 252 L260 289" fill="none" stroke="#8B5CF6" stroke-width="1.5" stroke-linecap="round" opacity="0.65"/>
      <path d="M260 289 L272 326" fill="none" stroke="#8B5CF6" stroke-width="0.9" stroke-linecap="round" opacity="0.45"/>
      <path d="M247 161 L232 211 L238 251 L222 283" fill="none" stroke="#8B5CF6" stroke-width="2.3" stroke-linecap="round" opacity="0.37"/>
      <path d="M222 283 L197 301" fill="none" stroke="#8B5CF6" stroke-width="1.4" stroke-linecap="round" opacity="0.26"/>
      <path d="M289 162 L302 214 L291 274 L292 324 L285 384" fill="none" stroke="#8B5CF6" stroke-width="1.8" stroke-linecap="round" opacity="0.74"/>
      <path d="M285 384 L260 404" fill="none" stroke="#8B5CF6" stroke-width="1.1" stroke-linecap="round" opacity="0.52"/>
      <path d="M260 174 L254 209 L271 266" fill="none" stroke="#8B5CF6" stroke-width="2.4" stroke-linecap="round" opacity="0.60"/>
      <path d="M271 266 L263 303" fill="none" stroke="#8B5CF6" stroke-width="1.4" stroke-linecap="round" opacity="0.42"/>
      <path d="M253 164 L269 218 L287 259 L294 317 L286 363" fill="none" stroke="#8B5CF6" stroke-width="2.0" stroke-linecap="round" opacity="0.35"/>
      <path d="M286 363 L294 380" fill="none" stroke="#8B5CF6" stroke-width="1.2" stroke-linecap="round" opacity="0.24"/>
      <path d="M203 153 L194 184 L211 224" fill="none" stroke="#8B5CF6" stroke-width="2.3" stroke-linecap="round" opacity="0.55"/>
      <path d="M241 160 L232 212 L251 251" fill="none" stroke="#8B5CF6" stroke-width="1.6" stroke-linecap="round" opacity="0.34"/>
      <path d="M251 251 L258 284" fill="none" stroke="#8B5CF6" stroke-width="1.0" stroke-linecap="round" opacity="0.24"/>
      <path d="M288 172 L308 203 L323 252" fill="none" stroke="#8B5CF6" stroke-width="1.4" stroke-linecap="round" opacity="0.71"/>
      <path d="M260 138 L279 180 L293 221" fill="none" stroke="#8B5CF6" stroke-width="1.8" stroke-linecap="round" opacity="0.50"/>
      <path d="M293 221 L274 254" fill="none" stroke="#8B5CF6" stroke-width="1.1" stroke-linecap="round" opacity="0.35"/>
      <path d="M309 145 L292 205 L285 254 L273 297" fill="none" stroke="#8B5CF6" stroke-width="1.8" stroke-linecap="round" opacity="0.39"/>
      <path d="M273 297 L290 312" fill="none" stroke="#8B5CF6" stroke-width="1.1" stroke-linecap="round" opacity="0.27"/>
      <path d="M225 164 L212 204 L228 234 L212 271 L213 323" fill="none" stroke="#8B5CF6" stroke-width="1.2" stroke-linecap="round" opacity="0.53"/>
      
  </g>

  <path d="M256 211 L268 226 L256 241 L244 226Z" fill="none" stroke="#A78BFA" stroke-width="1.5" opacity="0.6"/>

  <!-- Particles -->
  <circle cx="216" cy="151" r="1.1" fill="#8B5CF6" opacity="0.34"/>
      <circle cx="178" cy="307" r="2.1" fill="#8B5CF6" opacity="0.44"/>
      <circle cx="300" cy="374" r="2.7" fill="#8B5CF6" opacity="0.45"/>
      <circle cx="196" cy="236" r="1.2" fill="#8B5CF6" opacity="0.18"/>
      <circle cx="306" cy="349" r="2.1" fill="#8B5CF6" opacity="0.45"/>
      <circle cx="297" cy="133" r="1.8" fill="#8B5CF6" opacity="0.31"/>
      <circle cx="321" cy="273" r="1.9" fill="#8B5CF6" opacity="0.25"/>
      <circle cx="198" cy="100" r="1.4" fill="#8B5CF6" opacity="0.48"/>
      <circle cx="331" cy="179" r="2.7" fill="#8B5CF6" opacity="0.17"/>
      <circle cx="335" cy="336" r="1.1" fill="#8B5CF6" opacity="0.18"/>
      <circle cx="297" cy="256" r="2.5" fill="#8B5CF6" opacity="0.37"/>
      <circle cx="180" cy="254" r="1.3" fill="#8B5CF6" opacity="0.32"/>
      <circle cx="325" cy="206" r="1.3" fill="#8B5CF6" opacity="0.32"/>
      <circle cx="287" cy="329" r="2.0" fill="#8B5CF6" opacity="0.24"/>
      <circle cx="307" cy="285" r="1.1" fill="#8B5CF6" opacity="0.22"/>
      

  <!-- Ambient glow at feet -->
  <ellipse cx="256" cy="371" rx="70" ry="15" fill="#7C3AED" opacity="0.08" filter="url(#auraF)"/>

  <!-- Border ring -->
  <rect x="4" y="4" width="504" height="504" rx="16" fill="none" stroke="#8B5CF6" stroke-width="1" opacity="0.1"/>
</svg>