<svg xmlns="http://www.w3.org/2000/svg" viewBox="0 0 512 512" width="512" height="512">
  <defs>
    <radialGradient id="bg"><stop offset="0%" stop-color="#061018"/><stop offset="100%" stop-color="#040608"/></radialGradient>
    <radialGradient id="aura" cx="50%" cy="40%" r="40%"><stop offset="0%" stop-color="#16A34A" stop-opacity="0.15"/><stop offset="100%" stop-color="#16A34A" stop-opacity="0"/></radialGradient>
    <linearGradient id="stone" x1="0" y1="0" x2="0" y2="1"><stop offset="0%" stop-color="#222"/><stop offset="100%" stop-color="#0a0a0a"/></linearGradient>
    <filter id="glow"><feGaussianBlur in="SourceGraphic" stdDeviation="4" result="b"/><feMerge><feMergeNode in="b"/><feMergeNode in="SourceGraphic"/></feMerge></filter>
    <filter id="auraF"><feGaussianBlur in="SourceGraphic" stdDeviation="10"/></filter>
  </defs>
  <rect width="512" height="512" fill="url(#bg)"/>
  <circle cx="256" cy="198" r="150" fill="url(#aura)"/>

  <!-- Body -->
  <path d="M222 168 L208 208 L213 314 L232 344 L280 344 L299 314 L304 208 L290 168Z" fill="url(#stone)" stroke="#1a1a1a" stroke-width="1"/>

  <!-- Shoulder pads -->
  <path d="M222 168 L202 183 L207 218 L222 218Z" fill="#161616"/>
  <path d="M290 168 L310 183 L305 218 L290 218Z" fill="#161616"/>

  <!-- Helm -->
  <path d="M230 128 L230 168 L282 168 L282 128Z" fill="#181818" stroke="#222" stroke-width="1"/>

  <!-- Eyes -->
  <g fill="#22C55E" filter="url(#glow)">
    <path d="M242 145 L250 153 L242 161 L234 153Z"/>
    <path d="M270 145 L278 153 L270 161 L262 153Z"/>
  </g>
  <g fill="#86EFAC" opacity="0.7">
    <path d="M242 145 L250 153 L242 161 L234 153Z"/>
    <path d="M270 145 L278 153 L270 161 L262 153Z"/>
  </g>

  <!-- Energy veins -->
  <g filter="url(#glow)">
    <!-- Center spine -->
    <path d="M256 168 L254 238 L257 308 L255 304" fill="none" stroke="#22C55E" stroke-width="2" opacity="0.6"/>
    <path d="M228 175 L239 223 L231 262" fill="none" stroke="#22C55E" stroke-width="1.2" stroke-linecap="round" opacity="0.67"/>
      <path d="M231 262 L224 288" fill="none" stroke="#22C55E" stroke-width="0.7" stroke-linecap="round" opacity="0.47"/>
      <path d="M248 162 L240 199 L254 230" fill="none" stroke="#22C55E" stroke-width="1.9" stroke-linecap="round" opacity="0.33"/>
      <path d="M254 230 L277 267" fill="none" stroke="#22C55E" stroke-width="1.1" stroke-linecap="round" opacity="0.23"/>
      <path d="M254 162 L246 209 L229 260" fill="none" stroke="#22C55E" stroke-width="2.2" stroke-linecap="round" opacity="0.70"/>
      <path d="M229 260 L250 298" fill="none" stroke="#22C55E" stroke-width="1.3" stroke-linecap="round" opacity="0.49"/>
      <path d="M295 178 L278 220 L293 261 L281 315 L290 365" fill="none" stroke="#22C55E" stroke-width="1.8" stroke-linecap="round" opacity="0.53"/>
      <path d="M290 365 L299 388" fill="none" stroke="#22C55E" stroke-width="1.1" stroke-linecap="round" opacity="0.37"/>
      <path d="M283 172 L277 217 L277 262 L269 310" fill="none" stroke="#22C55E" stroke-width="1.2" stroke-linecap="round" opacity="0.60"/>
      
  </g>

  <path d="M256 233 L268 248 L256 263 L244 248Z" fill="none" stroke="#86EFAC" stroke-width="1.5" opacity="0.6"/>

  <!-- Particles -->
  

  <!-- Ambient glow at feet -->
  <ellipse cx="256" cy="349" rx="58" ry="15" fill="#16A34A" opacity="0.08" filter="url(#auraF)"/>

  <!-- Border ring -->
  <rect x="4" y="4" width="504" height="504" rx="16" fill="none" stroke="#22C55E" stroke-width="1" opacity="0.1"/>
</svg>