<svg xmlns="http://www.w3.org/2000/svg" viewBox="0 0 512 512" width="512" height="512">
  <defs>
    <radialGradient id="bg"><stop offset="0%" stop-color="#120a04"/><stop offset="100%" stop-color="#080604"/></radialGradient>
    <radialGradient id="aura" cx="50%" cy="40%" r="40%"><stop offset="0%" stop-color="#FF4500" stop-opacity="0.15"/><stop offset="100%" stop-color="#FF4500" stop-opacity="0"/></radialGradient>
    <linearGradient id="stone" x1="0" y1="0" x2="0" y2="1"><stop offset="0%" stop-color="#222"/><stop offset="100%" stop-color="#0a0a0a"/></linearGradient>
    <filter id="glow"><feGaussianBlur in="SourceGraphic" stdDeviation="4" result="b"/><feMerge><feMergeNode in="b"/><feMergeNode in="SourceGraphic"/></feMerge></filter>
    <filter id="auraF"><feGaussianBlur in="SourceGraphic" stdDeviation="10"/></filter>
  </defs>
  <rect width="512" height="512" fill="url(#bg)"/>
  <circle cx="256" cy="198" r="150" fill="url(#aura)"/>

  <!-- Body -->
  <path d="M222 168 L208 208 L213 314 L232 344 L280 344 L299 314 L304 208 L290 168Z" fill="url(#stone)" stroke="#1a1a1a" stroke-width="1"/>

  <!-- Shoulder pads -->
  <path d="M222 168 L202 183 L207 218 L222 218Z" fill="#161616"/>
  <path d="M290 168 L310 183 L305 218 L290 218Z" fill="#161616"/>

  <!-- Helm -->
  <path d="M230 128 L230 168 L282 168 L282 128Z" fill="#181818" stroke="#222" stroke-width="1"/>

  <!-- Eyes -->
  <g fill="#FF6B00" filter="url(#glow)">
    <circle cx="242" cy="153" r="7"/>
    <circle cx="270" cy="153" r="7"/>
  </g>
  <g fill="#FF9500" opacity="0.7">
    <circle cx="242" cy="153" r="7"/>
    <circle cx="270" cy="153" r="7"/>
  </g>

  <!-- Energy veins -->
  <g filter="url(#glow)">
    <!-- Center spine -->
    <path d="M256 168 L254 238 L257 308 L255 304" fill="none" stroke="#FF6B00" stroke-width="2" opacity="0.6"/>
    <path d="M218 159 L211 193 L203 249 L193 288" fill="none" stroke="#FF6B00" stroke-width="2.3" stroke-linecap="round" opacity="0.70"/>
      <path d="M223 187 L236 231 L225 290" fill="none" stroke="#FF6B00" stroke-width="2.2" stroke-linecap="round" opacity="0.57"/>
      <path d="M289 178 L302 237 L288 274" fill="none" stroke="#FF6B00" stroke-width="1.1" stroke-linecap="round" opacity="0.53"/>
      <path d="M213 158 L213 212 L202 262 L221 317" fill="none" stroke="#FF6B00" stroke-width="1.3" stroke-linecap="round" opacity="0.59"/>
      <path d="M263 169 L248 226 L230 267 L229 297 L219 348" fill="none" stroke="#FF6B00" stroke-width="1.8" stroke-linecap="round" opacity="0.44"/>
      <path d="M219 348 L210 376" fill="none" stroke="#FF6B00" stroke-width="1.1" stroke-linecap="round" opacity="0.31"/>
      <path d="M231 196 L222 249 L237 279 L253 312" fill="none" stroke="#FF6B00" stroke-width="1.0" stroke-linecap="round" opacity="0.53"/>
      <path d="M263 183 L243 220 L237 259" fill="none" stroke="#FF6B00" stroke-width="2.1" stroke-linecap="round" opacity="0.70"/>
      <path d="M257 179 L271 231 L277 271" fill="none" stroke="#FF6B00" stroke-width="2.5" stroke-linecap="round" opacity="0.58"/>
      <path d="M277 271 L257 291" fill="none" stroke="#FF6B00" stroke-width="1.5" stroke-linecap="round" opacity="0.41"/>
      
  </g>

  <path d="M256 233 L268 248 L256 263 L244 248Z" fill="none" stroke="#FF9500" stroke-width="1.5" opacity="0.6"/>

  <!-- Particles -->
  <circle cx="226" cy="180" r="1.8" fill="#FF6B00" opacity="0.42"/>
      <circle cx="272" cy="270" r="1.4" fill="#FF6B00" opacity="0.16"/>
      <circle cx="200" cy="219" r="1.6" fill="#FF6B00" opacity="0.50"/>
      <circle cx="181" cy="204" r="1.9" fill="#FF6B00" opacity="0.22"/>
      <circle cx="333" cy="170" r="1.9" fill="#FF6B00" opacity="0.25"/>
      <circle cx="274" cy="208" r="1.3" fill="#FF6B00" opacity="0.27"/>
      <circle cx="221" cy="321" r="1.2" fill="#FF6B00" opacity="0.20"/>
      <circle cx="221" cy="270" r="1.0" fill="#FF6B00" opacity="0.16"/>
      

  <!-- Ambient glow at feet -->
  <ellipse cx="256" cy="349" rx="58" ry="15" fill="#FF4500" opacity="0.08" filter="url(#auraF)"/>

  <!-- Border ring -->
  <rect x="4" y="4" width="504" height="504" rx="16" fill="none" stroke="#FF6B00" stroke-width="1" opacity="0.1"/>
</svg>