<svg xmlns="http://www.w3.org/2000/svg" viewBox="0 0 512 512" width="512" height="512">
  <defs>
    <radialGradient id="bg"><stop offset="0%" stop-color="#08061a"/><stop offset="100%" stop-color="#040408"/></radialGradient>
    <radialGradient id="aura" cx="50%" cy="40%" r="40%"><stop offset="0%" stop-color="#FF4500" stop-opacity="0.15"/><stop offset="100%" stop-color="#FF4500" stop-opacity="0"/></radialGradient>
    <linearGradient id="stone" x1="0" y1="0" x2="0" y2="1"><stop offset="0%" stop-color="#222"/><stop offset="100%" stop-color="#0a0a0a"/></linearGradient>
    <filter id="glow"><feGaussianBlur in="SourceGraphic" stdDeviation="4" result="b"/><feMerge><feMergeNode in="b"/><feMergeNode in="SourceGraphic"/></feMerge></filter>
    <filter id="auraF"><feGaussianBlur in="SourceGraphic" stdDeviation="10"/></filter>
  </defs>
  <rect width="512" height="512" fill="url(#bg)"/>
  <circle cx="256" cy="143" r="150" fill="url(#aura)"/>

  <!-- Body -->
  <path d="M201 113 L178 153 L183 369 L217 399 L295 399 L329 369 L334 153 L311 113Z" fill="url(#stone)" stroke="#1a1a1a" stroke-width="1"/>

  <!-- Shoulder pads -->
  <path d="M201 113 L181 128 L186 163 L201 163Z" fill="#161616"/>
  <path d="M311 113 L331 128 L326 163 L311 163Z" fill="#161616"/>

  <!-- Helm -->
  <path d="M256 43 L213 83 L218 113 L294 113 L299 83Z" fill="#181818" stroke="#222" stroke-width="1"/>

  <!-- Eyes -->
  <g fill="#FF6B00" filter="url(#glow)">
    <path d="M224 98 L232 95 L240 98 L232 101Z"/>
    <path d="M272 98 L280 95 L288 98 L280 101Z"/>
  </g>
  <g fill="#FF9500" opacity="0.7">
    <path d="M224 98 L232 95 L240 98 L232 101Z"/>
    <path d="M272 98 L280 95 L288 98 L280 101Z"/>
  </g>

  <!-- Energy veins -->
  <g filter="url(#glow)">
    <!-- Center spine -->
    <path d="M256 113 L254 183 L257 253 L255 359" fill="none" stroke="#FF6B00" stroke-width="2" opacity="0.6"/>
    <path d="M309 134 L291 169 L310 209" fill="none" stroke="#FF6B00" stroke-width="2.0" stroke-linecap="round" opacity="0.72"/>
      <path d="M310 209 L287 236" fill="none" stroke="#FF6B00" stroke-width="1.2" stroke-linecap="round" opacity="0.50"/>
      <path d="M190 113 L199 143 L185 179" fill="none" stroke="#FF6B00" stroke-width="1.1" stroke-linecap="round" opacity="0.42"/>
      <path d="M317 136 L319 188 L307 228 L318 269" fill="none" stroke="#FF6B00" stroke-width="2.0" stroke-linecap="round" opacity="0.37"/>
      <path d="M271 125 L285 175 L273 227 L266 284" fill="none" stroke="#FF6B00" stroke-width="2.4" stroke-linecap="round" opacity="0.35"/>
      <path d="M266 284 L253 308" fill="none" stroke="#FF6B00" stroke-width="1.4" stroke-linecap="round" opacity="0.24"/>
      <path d="M290 129 L302 184 L287 234" fill="none" stroke="#FF6B00" stroke-width="2.1" stroke-linecap="round" opacity="0.48"/>
      <path d="M287 234 L279 254" fill="none" stroke="#FF6B00" stroke-width="1.3" stroke-linecap="round" opacity="0.34"/>
      <path d="M333 107 L345 160 L332 217 L336 271" fill="none" stroke="#FF6B00" stroke-width="1.1" stroke-linecap="round" opacity="0.30"/>
      <path d="M336 271 L332 289" fill="none" stroke="#FF6B00" stroke-width="0.7" stroke-linecap="round" opacity="0.21"/>
      <path d="M294 117 L302 165 L283 224 L296 281" fill="none" stroke="#FF6B00" stroke-width="1.3" stroke-linecap="round" opacity="0.30"/>
      <path d="M296 281 L282 305" fill="none" stroke="#FF6B00" stroke-width="0.8" stroke-linecap="round" opacity="0.21"/>
      <path d="M315 109 L301 151 L321 208" fill="none" stroke="#FF6B00" stroke-width="1.8" stroke-linecap="round" opacity="0.59"/>
      
  </g>

  <path d="M256 178 L268 193 L256 208 L244 193Z" fill="none" stroke="#FF9500" stroke-width="1.5" opacity="0.6"/>

  <!-- Particles -->
  <circle cx="226" cy="161" r="2.0" fill="#FF6B00" opacity="0.47"/>
      <circle cx="312" cy="335" r="2.4" fill="#FF6B00" opacity="0.16"/>
      <circle cx="204" cy="134" r="1.8" fill="#FF6B00" opacity="0.31"/>
      <circle cx="327" cy="88" r="2.4" fill="#FF6B00" opacity="0.34"/>
      <circle cx="154" cy="313" r="1.6" fill="#FF6B00" opacity="0.17"/>
      <circle cx="204" cy="67" r="1.2" fill="#FF6B00" opacity="0.47"/>
      <circle cx="169" cy="200" r="1.1" fill="#FF6B00" opacity="0.46"/>
      <circle cx="257" cy="339" r="2.4" fill="#FF6B00" opacity="0.19"/>
      

  <!-- Ambient glow at feet -->
  <ellipse cx="256" cy="404" rx="88" ry="15" fill="#FF4500" opacity="0.08" filter="url(#auraF)"/>

  <!-- Border ring -->
  <rect x="4" y="4" width="504" height="504" rx="16" fill="none" stroke="#FF6B00" stroke-width="1" opacity="0.1"/>
</svg>