<svg xmlns="http://www.w3.org/2000/svg" viewBox="0 0 512 512" width="512" height="512">
  <defs>
    <radialGradient id="bg"><stop offset="0%" stop-color="#120a04"/><stop offset="100%" stop-color="#080604"/></radialGradient>
    <radialGradient id="aura" cx="50%" cy="40%" r="40%"><stop offset="0%" stop-color="#7C3AED" stop-opacity="0.15"/><stop offset="100%" stop-color="#7C3AED" stop-opacity="0"/></radialGradient>
    <linearGradient id="stone" x1="0" y1="0" x2="0" y2="1"><stop offset="0%" stop-color="#222"/><stop offset="100%" stop-color="#0a0a0a"/></linearGradient>
    <filter id="glow"><feGaussianBlur in="SourceGraphic" stdDeviation="4" result="b"/><feMerge><feMergeNode in="b"/><feMergeNode in="SourceGraphic"/></feMerge></filter>
    <filter id="auraF"><feGaussianBlur in="SourceGraphic" stdDeviation="10"/></filter>
  </defs>
  <rect width="512" height="512" fill="url(#bg)"/>
  <circle cx="256" cy="143" r="150" fill="url(#aura)"/>

  <!-- Body -->
  <path d="M201 113 L178 153 L183 369 L217 399 L295 399 L329 369 L334 153 L311 113Z" fill="url(#stone)" stroke="#1a1a1a" stroke-width="1"/>

  <!-- Shoulder pads -->
  <path d="M201 113 L181 128 L186 163 L201 163Z" fill="#161616"/>
  <path d="M311 113 L331 128 L326 163 L311 163Z" fill="#161616"/>

  <!-- Helm -->
  <path d="M256 43 L213 83 L218 113 L294 113 L299 83Z" fill="#181818" stroke="#222" stroke-width="1"/>

  <!-- Eyes -->
  <g fill="#8B5CF6" filter="url(#glow)">
    <path d="M232 90 L240 98 L232 106 L224 98Z"/>
    <path d="M280 90 L288 98 L280 106 L272 98Z"/>
  </g>
  <g fill="#A78BFA" opacity="0.7">
    <path d="M232 90 L240 98 L232 106 L224 98Z"/>
    <path d="M280 90 L288 98 L280 106 L272 98Z"/>
  </g>

  <!-- Energy veins -->
  <g filter="url(#glow)">
    <!-- Center spine -->
    <path d="M256 113 L254 183 L257 253 L255 359" fill="none" stroke="#8B5CF6" stroke-width="2" opacity="0.6"/>
    <path d="M189 104 L171 145 L155 183 L141 221 L141 281" fill="none" stroke="#8B5CF6" stroke-width="1.9" stroke-linecap="round" opacity="0.55"/>
      <path d="M231 139 L244 194 L233 244" fill="none" stroke="#8B5CF6" stroke-width="2.2" stroke-linecap="round" opacity="0.43"/>
      <path d="M207 136 L191 187 L210 246 L214 285 L231 322" fill="none" stroke="#8B5CF6" stroke-width="1.7" stroke-linecap="round" opacity="0.30"/>
      <path d="M187 125 L204 170 L184 223 L169 264 L177 316" fill="none" stroke="#8B5CF6" stroke-width="2.1" stroke-linecap="round" opacity="0.71"/>
      <path d="M177 316 L166 354" fill="none" stroke="#8B5CF6" stroke-width="1.3" stroke-linecap="round" opacity="0.50"/>
      <path d="M317 143 L333 190 L331 243" fill="none" stroke="#8B5CF6" stroke-width="1.0" stroke-linecap="round" opacity="0.33"/>
      <path d="M331 243 L325 277" fill="none" stroke="#8B5CF6" stroke-width="0.6" stroke-linecap="round" opacity="0.23"/>
      <path d="M266 125 L263 165 L268 213 L254 272" fill="none" stroke="#8B5CF6" stroke-width="2.2" stroke-linecap="round" opacity="0.49"/>
      <path d="M254 272 L267 300" fill="none" stroke="#8B5CF6" stroke-width="1.3" stroke-linecap="round" opacity="0.34"/>
      <path d="M234 139 L250 183 L252 232" fill="none" stroke="#8B5CF6" stroke-width="1.2" stroke-linecap="round" opacity="0.35"/>
      <path d="M252 232 L232 252" fill="none" stroke="#8B5CF6" stroke-width="0.7" stroke-linecap="round" opacity="0.24"/>
      <path d="M250 140 L263 180 L274 227 L255 260 L259 313" fill="none" stroke="#8B5CF6" stroke-width="2.1" stroke-linecap="round" opacity="0.52"/>
      <path d="M259 313 L251 328" fill="none" stroke="#8B5CF6" stroke-width="1.3" stroke-linecap="round" opacity="0.36"/>
      <path d="M215 103 L208 133 L195 188 L175 246 L155 280" fill="none" stroke="#8B5CF6" stroke-width="2.3" stroke-linecap="round" opacity="0.32"/>
      <path d="M155 280 L151 320" fill="none" stroke="#8B5CF6" stroke-width="1.4" stroke-linecap="round" opacity="0.22"/>
      <path d="M190 115 L188 170 L202 221 L194 251" fill="none" stroke="#8B5CF6" stroke-width="1.0" stroke-linecap="round" opacity="0.64"/>
      <path d="M227 131 L231 180 L215 238" fill="none" stroke="#8B5CF6" stroke-width="1.0" stroke-linecap="round" opacity="0.61"/>
      <path d="M282 130 L278 189 L264 222 L249 266 L265 297" fill="none" stroke="#8B5CF6" stroke-width="1.1" stroke-linecap="round" opacity="0.30"/>
      
  </g>

  <path d="M256 178 L268 193 L256 208 L244 193Z" fill="none" stroke="#A78BFA" stroke-width="1.5" opacity="0.6"/>

  <!-- Particles -->
  <circle cx="214" cy="219" r="1.3" fill="#8B5CF6" opacity="0.43"/>
      <circle cx="265" cy="119" r="2.4" fill="#8B5CF6" opacity="0.31"/>
      <circle cx="279" cy="185" r="1.3" fill="#8B5CF6" opacity="0.37"/>
      <circle cx="266" cy="405" r="1.8" fill="#8B5CF6" opacity="0.31"/>
      <circle cx="183" cy="348" r="2.2" fill="#8B5CF6" opacity="0.37"/>
      <circle cx="324" cy="403" r="2.9" fill="#8B5CF6" opacity="0.23"/>
      <circle cx="261" cy="165" r="2.8" fill="#8B5CF6" opacity="0.41"/>
      <circle cx="161" cy="146" r="3.0" fill="#8B5CF6" opacity="0.33"/>
      <circle cx="339" cy="285" r="2.7" fill="#8B5CF6" opacity="0.44"/>
      <circle cx="313" cy="139" r="1.9" fill="#8B5CF6" opacity="0.17"/>
      <circle cx="270" cy="91" r="1.6" fill="#8B5CF6" opacity="0.17"/>
      <circle cx="319" cy="71" r="3.0" fill="#8B5CF6" opacity="0.41"/>
      <circle cx="238" cy="353" r="2.0" fill="#8B5CF6" opacity="0.25"/>
      <circle cx="364" cy="111" r="2.5" fill="#8B5CF6" opacity="0.28"/>
      <circle cx="174" cy="81" r="1.7" fill="#8B5CF6" opacity="0.44"/>
      

  <!-- Ambient glow at feet -->
  <ellipse cx="256" cy="404" rx="88" ry="15" fill="#7C3AED" opacity="0.08" filter="url(#auraF)"/>

  <!-- Border ring -->
  <rect x="4" y="4" width="504" height="504" rx="16" fill="none" stroke="#8B5CF6" stroke-width="1" opacity="0.1"/>
</svg>