<svg xmlns="http://www.w3.org/2000/svg" viewBox="0 0 512 512" width="512" height="512">
  <defs>
    <radialGradient id="bg"><stop offset="0%" stop-color="#1a0802"/><stop offset="100%" stop-color="#0d0604"/></radialGradient>
    <radialGradient id="aura" cx="50%" cy="40%" r="40%"><stop offset="0%" stop-color="#FF4500" stop-opacity="0.15"/><stop offset="100%" stop-color="#FF4500" stop-opacity="0"/></radialGradient>
    <linearGradient id="stone" x1="0" y1="0" x2="0" y2="1"><stop offset="0%" stop-color="#222"/><stop offset="100%" stop-color="#0a0a0a"/></linearGradient>
    <filter id="glow"><feGaussianBlur in="SourceGraphic" stdDeviation="4" result="b"/><feMerge><feMergeNode in="b"/><feMergeNode in="SourceGraphic"/></feMerge></filter>
    <filter id="auraF"><feGaussianBlur in="SourceGraphic" stdDeviation="10"/></filter>
  </defs>
  <rect width="512" height="512" fill="url(#bg)"/>
  <circle cx="256" cy="198" r="150" fill="url(#aura)"/>

  <!-- Body -->
  <path d="M222 168 L208 208 L213 314 L232 344 L280 344 L299 314 L304 208 L290 168Z" fill="url(#stone)" stroke="#1a1a1a" stroke-width="1"/>

  <!-- Shoulder pads -->
  <path d="M222 168 L202 183 L207 218 L222 218Z" fill="#161616"/>
  <path d="M290 168 L310 183 L305 218 L290 218Z" fill="#161616"/>

  <!-- Helm -->
  <path d="M256 108 L230 143 L215 103 L230 168 L282 168 L297 103 L282 143Z" fill="#181818" stroke="#222" stroke-width="1"/>

  <!-- Eyes -->
  <g fill="#FF6B00" filter="url(#glow)">
    <path d="M234 149 L250 147 L248 157 L236 159Z"/>
    <path d="M262 149 L278 147 L276 157 L264 159Z"/>
  </g>
  <g fill="#FF9500" opacity="0.7">
    <path d="M234 149 L250 147 L248 157 L236 159Z"/>
    <path d="M262 149 L278 147 L276 157 L264 159Z"/>
  </g>

  <!-- Energy veins -->
  <g filter="url(#glow)">
    <!-- Center spine -->
    <path d="M256 168 L254 238 L257 308 L255 304" fill="none" stroke="#FF6B00" stroke-width="2" opacity="0.6"/>
    <path d="M215 175 L196 229 L195 260" fill="none" stroke="#FF6B00" stroke-width="1.1" stroke-linecap="round" opacity="0.44"/>
      <path d="M195 260 L197 287" fill="none" stroke="#FF6B00" stroke-width="0.7" stroke-linecap="round" opacity="0.31"/>
      <path d="M265 185 L256 244 L248 276 L263 320" fill="none" stroke="#FF6B00" stroke-width="1.4" stroke-linecap="round" opacity="0.60"/>
      <path d="M248 192 L229 243 L222 277 L203 328" fill="none" stroke="#FF6B00" stroke-width="2.3" stroke-linecap="round" opacity="0.69"/>
      <path d="M203 328 L199 352" fill="none" stroke="#FF6B00" stroke-width="1.4" stroke-linecap="round" opacity="0.48"/>
      <path d="M293 196 L295 234 L305 271 L322 330" fill="none" stroke="#FF6B00" stroke-width="1.1" stroke-linecap="round" opacity="0.58"/>
      <path d="M322 330 L345 370" fill="none" stroke="#FF6B00" stroke-width="0.7" stroke-linecap="round" opacity="0.41"/>
      <path d="M286 172 L294 214 L294 257 L314 292 L326 339" fill="none" stroke="#FF6B00" stroke-width="1.9" stroke-linecap="round" opacity="0.79"/>
      <path d="M326 339 L336 354" fill="none" stroke="#FF6B00" stroke-width="1.1" stroke-linecap="round" opacity="0.55"/>
      
  </g>

  

  <!-- Particles -->
  

  <!-- Ambient glow at feet -->
  <ellipse cx="256" cy="349" rx="58" ry="15" fill="#FF4500" opacity="0.08" filter="url(#auraF)"/>

  <!-- Border ring -->
  <rect x="4" y="4" width="504" height="504" rx="16" fill="none" stroke="#FF6B00" stroke-width="1" opacity="0.1"/>
</svg>