<svg xmlns="http://www.w3.org/2000/svg" viewBox="0 0 512 512" width="512" height="512">
  <defs>
    <radialGradient id="bg"><stop offset="0%" stop-color="#161412"/><stop offset="100%" stop-color="#0a0908"/></radialGradient>
    <radialGradient id="aura" cx="50%" cy="40%" r="40%"><stop offset="0%" stop-color="#0891B2" stop-opacity="0.15"/><stop offset="100%" stop-color="#0891B2" stop-opacity="0"/></radialGradient>
    <linearGradient id="stone" x1="0" y1="0" x2="0" y2="1"><stop offset="0%" stop-color="#222"/><stop offset="100%" stop-color="#0a0a0a"/></linearGradient>
    <filter id="glow"><feGaussianBlur in="SourceGraphic" stdDeviation="4" result="b"/><feMerge><feMergeNode in="b"/><feMergeNode in="SourceGraphic"/></feMerge></filter>
    <filter id="auraF"><feGaussianBlur in="SourceGraphic" stdDeviation="10"/></filter>
  </defs>
  <rect width="512" height="512" fill="url(#bg)"/>
  <circle cx="256" cy="198" r="150" fill="url(#aura)"/>

  <!-- Body -->
  <path d="M222 168 L208 208 L213 314 L232 344 L280 344 L299 314 L304 208 L290 168Z" fill="url(#stone)" stroke="#1a1a1a" stroke-width="1"/>

  <!-- Shoulder pads -->
  <path d="M222 168 L202 183 L207 218 L222 218Z" fill="#161616"/>
  <path d="M290 168 L310 183 L305 218 L290 218Z" fill="#161616"/>

  <!-- Helm -->
  <path d="M256 98 L230 138 L235 168 L277 168 L282 138Z" fill="#181818" stroke="#222" stroke-width="1"/>

  <!-- Eyes -->
  <g fill="#06B6D4" filter="url(#glow)">
    <path d="M234 149 L250 147 L248 157 L236 159Z"/>
    <path d="M262 149 L278 147 L276 157 L264 159Z"/>
  </g>
  <g fill="#67E8F9" opacity="0.7">
    <path d="M234 149 L250 147 L248 157 L236 159Z"/>
    <path d="M262 149 L278 147 L276 157 L264 159Z"/>
  </g>

  <!-- Energy veins -->
  <g filter="url(#glow)">
    <!-- Center spine -->
    <path d="M256 168 L254 238 L257 308 L255 304" fill="none" stroke="#06B6D4" stroke-width="2" opacity="0.6"/>
    <path d="M247 172 L264 226 L258 259 L265 312" fill="none" stroke="#06B6D4" stroke-width="1.9" stroke-linecap="round" opacity="0.33"/>
      <path d="M259 178 L264 228 L269 264 L278 324 L263 380" fill="none" stroke="#06B6D4" stroke-width="1.1" stroke-linecap="round" opacity="0.53"/>
      <path d="M263 380 L280 402" fill="none" stroke="#06B6D4" stroke-width="0.7" stroke-linecap="round" opacity="0.37"/>
      <path d="M249 182 L231 239 L211 289 L221 335" fill="none" stroke="#06B6D4" stroke-width="1.3" stroke-linecap="round" opacity="0.68"/>
      <path d="M221 335 L220 373" fill="none" stroke="#06B6D4" stroke-width="0.8" stroke-linecap="round" opacity="0.48"/>
      <path d="M210 158 L202 207 L200 241" fill="none" stroke="#06B6D4" stroke-width="1.6" stroke-linecap="round" opacity="0.67"/>
      <path d="M200 241 L209 260" fill="none" stroke="#06B6D4" stroke-width="1.0" stroke-linecap="round" opacity="0.47"/>
      <path d="M254 195 L243 246 L224 292 L207 324 L195 357" fill="none" stroke="#06B6D4" stroke-width="1.6" stroke-linecap="round" opacity="0.65"/>
      <path d="M273 191 L272 242 L283 292 L265 340 L246 376" fill="none" stroke="#06B6D4" stroke-width="1.7" stroke-linecap="round" opacity="0.72"/>
      <path d="M248 159 L242 209 L228 269 L221 309 L224 357" fill="none" stroke="#06B6D4" stroke-width="2.0" stroke-linecap="round" opacity="0.39"/>
      <path d="M224 357 L210 390" fill="none" stroke="#06B6D4" stroke-width="1.2" stroke-linecap="round" opacity="0.27"/>
      <path d="M241 175 L233 215 L250 260" fill="none" stroke="#06B6D4" stroke-width="2.1" stroke-linecap="round" opacity="0.49"/>
      <path d="M250 260 L229 284" fill="none" stroke="#06B6D4" stroke-width="1.3" stroke-linecap="round" opacity="0.34"/>
      <path d="M228 164 L225 218 L234 262" fill="none" stroke="#06B6D4" stroke-width="2.2" stroke-linecap="round" opacity="0.46"/>
      <path d="M234 262 L252 280" fill="none" stroke="#06B6D4" stroke-width="1.3" stroke-linecap="round" opacity="0.32"/>
      <path d="M271 159 L274 197 L284 237" fill="none" stroke="#06B6D4" stroke-width="2.2" stroke-linecap="round" opacity="0.37"/>
      <path d="M256 165 L267 195 L262 227" fill="none" stroke="#06B6D4" stroke-width="2.0" stroke-linecap="round" opacity="0.80"/>
      <path d="M282 159 L279 201 L280 243 L263 273" fill="none" stroke="#06B6D4" stroke-width="2.4" stroke-linecap="round" opacity="0.62"/>
      <path d="M263 273 L271 296" fill="none" stroke="#06B6D4" stroke-width="1.4" stroke-linecap="round" opacity="0.43"/>
      
  </g>

  

  <!-- Particles -->
  <circle cx="233" cy="174" r="1.2" fill="#06B6D4" opacity="0.48"/>
      <circle cx="275" cy="226" r="2.0" fill="#06B6D4" opacity="0.20"/>
      <circle cx="245" cy="257" r="1.2" fill="#06B6D4" opacity="0.24"/>
      <circle cx="256" cy="297" r="2.1" fill="#06B6D4" opacity="0.22"/>
      <circle cx="237" cy="292" r="2.3" fill="#06B6D4" opacity="0.38"/>
      <circle cx="259" cy="134" r="2.5" fill="#06B6D4" opacity="0.42"/>
      <circle cx="231" cy="165" r="1.7" fill="#06B6D4" opacity="0.17"/>
      <circle cx="227" cy="128" r="1.1" fill="#06B6D4" opacity="0.43"/>
      <circle cx="309" cy="342" r="1.7" fill="#06B6D4" opacity="0.20"/>
      <circle cx="270" cy="205" r="1.8" fill="#06B6D4" opacity="0.46"/>
      <circle cx="181" cy="163" r="2.0" fill="#06B6D4" opacity="0.48"/>
      <circle cx="303" cy="154" r="2.9" fill="#06B6D4" opacity="0.16"/>
      <circle cx="240" cy="202" r="2.0" fill="#06B6D4" opacity="0.16"/>
      <circle cx="206" cy="179" r="2.5" fill="#06B6D4" opacity="0.28"/>
      <circle cx="244" cy="270" r="1.5" fill="#06B6D4" opacity="0.41"/>
      

  <!-- Ambient glow at feet -->
  <ellipse cx="256" cy="349" rx="58" ry="15" fill="#0891B2" opacity="0.08" filter="url(#auraF)"/>

  <!-- Border ring -->
  <rect x="4" y="4" width="504" height="504" rx="16" fill="none" stroke="#06B6D4" stroke-width="1" opacity="0.1"/>
</svg>