<svg xmlns="http://www.w3.org/2000/svg" viewBox="0 0 512 512" width="512" height="512">
  <defs>
    <radialGradient id="bg"><stop offset="0%" stop-color="#161412"/><stop offset="100%" stop-color="#0a0908"/></radialGradient>
    <radialGradient id="aura" cx="50%" cy="40%" r="40%"><stop offset="0%" stop-color="#FF4500" stop-opacity="0.15"/><stop offset="100%" stop-color="#FF4500" stop-opacity="0"/></radialGradient>
    <linearGradient id="stone" x1="0" y1="0" x2="0" y2="1"><stop offset="0%" stop-color="#222"/><stop offset="100%" stop-color="#0a0a0a"/></linearGradient>
    <filter id="glow"><feGaussianBlur in="SourceGraphic" stdDeviation="4" result="b"/><feMerge><feMergeNode in="b"/><feMergeNode in="SourceGraphic"/></feMerge></filter>
    <filter id="auraF"><feGaussianBlur in="SourceGraphic" stdDeviation="10"/></filter>
  </defs>
  <rect width="512" height="512" fill="url(#bg)"/>
  <circle cx="256" cy="143" r="150" fill="url(#aura)"/>

  <!-- Body -->
  <path d="M201 113 L178 153 L183 369 L217 399 L295 399 L329 369 L334 153 L311 113Z" fill="url(#stone)" stroke="#1a1a1a" stroke-width="1"/>

  <!-- Shoulder pads -->
  <path d="M201 113 L181 128 L186 163 L201 163Z" fill="#161616"/>
  <path d="M311 113 L331 128 L326 163 L311 163Z" fill="#161616"/>

  <!-- Helm -->
  <path d="M256 43 L213 83 L218 113 L294 113 L299 83Z" fill="#181818" stroke="#222" stroke-width="1"/>

  <!-- Eyes -->
  <g fill="#FF6B00" filter="url(#glow)">
    <path d="M224 98 L232 95 L240 98 L232 101Z"/>
    <path d="M272 98 L280 95 L288 98 L280 101Z"/>
  </g>
  <g fill="#FF9500" opacity="0.7">
    <path d="M224 98 L232 95 L240 98 L232 101Z"/>
    <path d="M272 98 L280 95 L288 98 L280 101Z"/>
  </g>

  <!-- Energy veins -->
  <g filter="url(#glow)">
    <!-- Center spine -->
    <path d="M256 113 L254 183 L257 253 L255 359" fill="none" stroke="#FF6B00" stroke-width="2" opacity="0.6"/>
    <path d="M179 109 L164 142 L177 192" fill="none" stroke="#FF6B00" stroke-width="1.0" stroke-linecap="round" opacity="0.51"/>
      <path d="M214 119 L202 155 L202 197" fill="none" stroke="#FF6B00" stroke-width="1.3" stroke-linecap="round" opacity="0.69"/>
      <path d="M314 127 L324 168 L320 199" fill="none" stroke="#FF6B00" stroke-width="2.1" stroke-linecap="round" opacity="0.76"/>
      <path d="M320 199 L316 236" fill="none" stroke="#FF6B00" stroke-width="1.3" stroke-linecap="round" opacity="0.53"/>
      <path d="M199 136 L219 178 L239 217 L240 271" fill="none" stroke="#FF6B00" stroke-width="1.9" stroke-linecap="round" opacity="0.62"/>
      <path d="M227 141 L230 188 L225 222" fill="none" stroke="#FF6B00" stroke-width="1.7" stroke-linecap="round" opacity="0.40"/>
      <path d="M257 129 L249 166 L259 214" fill="none" stroke="#FF6B00" stroke-width="1.4" stroke-linecap="round" opacity="0.62"/>
      <path d="M259 214 L251 248" fill="none" stroke="#FF6B00" stroke-width="0.8" stroke-linecap="round" opacity="0.43"/>
      <path d="M334 107 L315 166 L298 211" fill="none" stroke="#FF6B00" stroke-width="2.1" stroke-linecap="round" opacity="0.30"/>
      <path d="M298 211 L322 239" fill="none" stroke="#FF6B00" stroke-width="1.3" stroke-linecap="round" opacity="0.21"/>
      <path d="M324 123 L328 160 L320 211" fill="none" stroke="#FF6B00" stroke-width="1.2" stroke-linecap="round" opacity="0.78"/>
      
  </g>

  <path d="M256 178 L268 193 L256 208 L244 193Z" fill="none" stroke="#FF9500" stroke-width="1.5" opacity="0.6"/>

  <!-- Particles -->
  <circle cx="283" cy="115" r="2.2" fill="#FF6B00" opacity="0.25"/>
      <circle cx="334" cy="185" r="2.8" fill="#FF6B00" opacity="0.20"/>
      <circle cx="339" cy="77" r="1.8" fill="#FF6B00" opacity="0.45"/>
      <circle cx="209" cy="386" r="1.2" fill="#FF6B00" opacity="0.38"/>
      <circle cx="329" cy="332" r="2.1" fill="#FF6B00" opacity="0.35"/>
      <circle cx="237" cy="377" r="1.8" fill="#FF6B00" opacity="0.25"/>
      <circle cx="341" cy="339" r="1.9" fill="#FF6B00" opacity="0.32"/>
      <circle cx="328" cy="356" r="1.2" fill="#FF6B00" opacity="0.19"/>
      

  <!-- Ambient glow at feet -->
  <ellipse cx="256" cy="404" rx="88" ry="15" fill="#FF4500" opacity="0.08" filter="url(#auraF)"/>

  <!-- Border ring -->
  <rect x="4" y="4" width="504" height="504" rx="16" fill="none" stroke="#FF6B00" stroke-width="1" opacity="0.1"/>
</svg>