<svg xmlns="http://www.w3.org/2000/svg" viewBox="0 0 512 512" width="512" height="512">
  <defs>
    <radialGradient id="bg"><stop offset="0%" stop-color="#1a0802"/><stop offset="100%" stop-color="#0d0604"/></radialGradient>
    <radialGradient id="aura" cx="50%" cy="40%" r="40%"><stop offset="0%" stop-color="#D97706" stop-opacity="0.15"/><stop offset="100%" stop-color="#D97706" stop-opacity="0"/></radialGradient>
    <linearGradient id="stone" x1="0" y1="0" x2="0" y2="1"><stop offset="0%" stop-color="#222"/><stop offset="100%" stop-color="#0a0a0a"/></linearGradient>
    <filter id="glow"><feGaussianBlur in="SourceGraphic" stdDeviation="4" result="b"/><feMerge><feMergeNode in="b"/><feMergeNode in="SourceGraphic"/></feMerge></filter>
    <filter id="auraF"><feGaussianBlur in="SourceGraphic" stdDeviation="10"/></filter>
  </defs>
  <rect width="512" height="512" fill="url(#bg)"/>
  <circle cx="256" cy="176" r="150" fill="url(#aura)"/>

  <!-- Body -->
  <path d="M214 146 L196 186 L201 336 L226 366 L286 366 L311 336 L316 186 L298 146Z" fill="url(#stone)" stroke="#1a1a1a" stroke-width="1"/>

  <!-- Shoulder pads -->
  <path d="M214 146 L194 161 L199 196 L214 196Z" fill="#161616"/>
  <path d="M298 146 L318 161 L313 196 L298 196Z" fill="#161616"/>

  <!-- Helm -->
  <path d="M256 66 L233 111 L223 146 L289 146 L279 111Z" fill="#181818" stroke="#222" stroke-width="1"/>

  <!-- Eyes -->
  <g fill="#F59E0B" filter="url(#glow)">
    <path d="M230 127 L246 125 L244 135 L232 137Z"/>
    <path d="M266 127 L282 125 L280 135 L268 137Z"/>
  </g>
  <g fill="#FDE68A" opacity="0.7">
    <path d="M230 127 L246 125 L244 135 L232 137Z"/>
    <path d="M266 127 L282 125 L280 135 L268 137Z"/>
  </g>

  <!-- Energy veins -->
  <g filter="url(#glow)">
    <!-- Center spine -->
    <path d="M256 146 L254 216 L257 286 L255 326" fill="none" stroke="#F59E0B" stroke-width="2" opacity="0.6"/>
    <path d="M219 154 L225 195 L217 230 L234 282" fill="none" stroke="#F59E0B" stroke-width="1.6" stroke-linecap="round" opacity="0.71"/>
      <path d="M234 282 L217 309" fill="none" stroke="#F59E0B" stroke-width="1.0" stroke-linecap="round" opacity="0.50"/>
      <path d="M218 160 L221 218 L209 255 L202 296 L197 345" fill="none" stroke="#F59E0B" stroke-width="1.8" stroke-linecap="round" opacity="0.61"/>
      <path d="M221 137 L226 173 L232 209 L216 247 L227 294" fill="none" stroke="#F59E0B" stroke-width="1.0" stroke-linecap="round" opacity="0.59"/>
      <path d="M227 294 L225 312" fill="none" stroke="#F59E0B" stroke-width="0.6" stroke-linecap="round" opacity="0.41"/>
      <path d="M232 144 L221 193 L213 223" fill="none" stroke="#F59E0B" stroke-width="1.4" stroke-linecap="round" opacity="0.72"/>
      <path d="M213 223 L189 254" fill="none" stroke="#F59E0B" stroke-width="0.8" stroke-linecap="round" opacity="0.50"/>
      <path d="M220 147 L220 185 L233 220 L250 256" fill="none" stroke="#F59E0B" stroke-width="1.8" stroke-linecap="round" opacity="0.79"/>
      <path d="M250 256 L265 273" fill="none" stroke="#F59E0B" stroke-width="1.1" stroke-linecap="round" opacity="0.55"/>
      
  </g>

  

  <!-- Particles -->
  

  <!-- Ambient glow at feet -->
  <ellipse cx="256" cy="371" rx="70" ry="15" fill="#D97706" opacity="0.08" filter="url(#auraF)"/>

  <!-- Border ring -->
  <rect x="4" y="4" width="504" height="504" rx="16" fill="none" stroke="#F59E0B" stroke-width="1" opacity="0.1"/>
</svg>