<svg xmlns="http://www.w3.org/2000/svg" viewBox="0 0 512 512" width="512" height="512">
  <defs>
    <radialGradient id="bg"><stop offset="0%" stop-color="#08061a"/><stop offset="100%" stop-color="#040408"/></radialGradient>
    <radialGradient id="aura" cx="50%" cy="40%" r="40%"><stop offset="0%" stop-color="#FF4500" stop-opacity="0.15"/><stop offset="100%" stop-color="#FF4500" stop-opacity="0"/></radialGradient>
    <linearGradient id="stone" x1="0" y1="0" x2="0" y2="1"><stop offset="0%" stop-color="#222"/><stop offset="100%" stop-color="#0a0a0a"/></linearGradient>
    <filter id="glow"><feGaussianBlur in="SourceGraphic" stdDeviation="4" result="b"/><feMerge><feMergeNode in="b"/><feMergeNode in="SourceGraphic"/></feMerge></filter>
    <filter id="auraF"><feGaussianBlur in="SourceGraphic" stdDeviation="10"/></filter>
  </defs>
  <rect width="512" height="512" fill="url(#bg)"/>
  <circle cx="256" cy="198" r="150" fill="url(#aura)"/>

  <!-- Body -->
  <path d="M222 168 L208 208 L213 314 L232 344 L280 344 L299 314 L304 208 L290 168Z" fill="url(#stone)" stroke="#1a1a1a" stroke-width="1"/>

  <!-- Shoulder pads -->
  <path d="M222 168 L202 183 L207 218 L222 218Z" fill="#161616"/>
  <path d="M290 168 L310 183 L305 218 L290 218Z" fill="#161616"/>

  <!-- Helm -->
  <path d="M256 88 L240 133 L230 168 L282 168 L272 133Z" fill="#181818" stroke="#222" stroke-width="1"/>

  <!-- Eyes -->
  <g fill="#FF6B00" filter="url(#glow)">
    <path d="M234 149 L250 147 L248 157 L236 159Z"/>
    <path d="M262 149 L278 147 L276 157 L264 159Z"/>
  </g>
  <g fill="#FF9500" opacity="0.7">
    <path d="M234 149 L250 147 L248 157 L236 159Z"/>
    <path d="M262 149 L278 147 L276 157 L264 159Z"/>
  </g>

  <!-- Energy veins -->
  <g filter="url(#glow)">
    <!-- Center spine -->
    <path d="M256 168 L254 238 L257 308 L255 304" fill="none" stroke="#FF6B00" stroke-width="2" opacity="0.6"/>
    <path d="M230 185 L239 230 L246 264" fill="none" stroke="#FF6B00" stroke-width="1.4" stroke-linecap="round" opacity="0.72"/>
      <path d="M261 162 L265 200 L284 237" fill="none" stroke="#FF6B00" stroke-width="2.0" stroke-linecap="round" opacity="0.59"/>
      <path d="M284 237 L262 263" fill="none" stroke="#FF6B00" stroke-width="1.2" stroke-linecap="round" opacity="0.41"/>
      <path d="M288 167 L295 214 L315 264 L317 317 L334 366" fill="none" stroke="#FF6B00" stroke-width="1.5" stroke-linecap="round" opacity="0.51"/>
      <path d="M334 366 L318 395" fill="none" stroke="#FF6B00" stroke-width="0.9" stroke-linecap="round" opacity="0.36"/>
      <path d="M269 167 L258 200 L272 244 L255 290 L241 348" fill="none" stroke="#FF6B00" stroke-width="1.5" stroke-linecap="round" opacity="0.75"/>
      <path d="M266 183 L257 217 L242 266" fill="none" stroke="#FF6B00" stroke-width="1.9" stroke-linecap="round" opacity="0.57"/>
      
  </g>

  

  <!-- Particles -->
  

  <!-- Ambient glow at feet -->
  <ellipse cx="256" cy="349" rx="58" ry="15" fill="#FF4500" opacity="0.08" filter="url(#auraF)"/>

  <!-- Border ring -->
  <rect x="4" y="4" width="504" height="504" rx="16" fill="none" stroke="#FF6B00" stroke-width="1" opacity="0.1"/>
</svg>