<svg xmlns="http://www.w3.org/2000/svg" viewBox="0 0 512 512" width="512" height="512">
  <defs>
    <radialGradient id="bg"><stop offset="0%" stop-color="#1a0802"/><stop offset="100%" stop-color="#0d0604"/></radialGradient>
    <radialGradient id="aura" cx="50%" cy="40%" r="40%"><stop offset="0%" stop-color="#FF4500" stop-opacity="0.15"/><stop offset="100%" stop-color="#FF4500" stop-opacity="0"/></radialGradient>
    <linearGradient id="stone" x1="0" y1="0" x2="0" y2="1"><stop offset="0%" stop-color="#222"/><stop offset="100%" stop-color="#0a0a0a"/></linearGradient>
    <filter id="glow"><feGaussianBlur in="SourceGraphic" stdDeviation="4" result="b"/><feMerge><feMergeNode in="b"/><feMergeNode in="SourceGraphic"/></feMerge></filter>
    <filter id="auraF"><feGaussianBlur in="SourceGraphic" stdDeviation="10"/></filter>
  </defs>
  <rect width="512" height="512" fill="url(#bg)"/>
  <circle cx="256" cy="143" r="150" fill="url(#aura)"/>

  <!-- Body -->
  <path d="M201 113 L178 153 L183 369 L217 399 L295 399 L329 369 L334 153 L311 113Z" fill="url(#stone)" stroke="#1a1a1a" stroke-width="1"/>

  <!-- Shoulder pads -->
  <path d="M201 113 L181 128 L186 163 L201 163Z" fill="#161616"/>
  <path d="M311 113 L331 128 L326 163 L311 163Z" fill="#161616"/>

  <!-- Helm -->
  <path d="M256 53 L213 88 L198 48 L213 113 L299 113 L314 48 L299 88Z" fill="#181818" stroke="#222" stroke-width="1"/>

  <!-- Eyes -->
  <g fill="#FF6B00" filter="url(#glow)">
    <circle cx="232" cy="98" r="7"/>
    <circle cx="280" cy="98" r="7"/>
  </g>
  <g fill="#FF9500" opacity="0.7">
    <circle cx="232" cy="98" r="7"/>
    <circle cx="280" cy="98" r="7"/>
  </g>

  <!-- Energy veins -->
  <g filter="url(#glow)">
    <!-- Center spine -->
    <path d="M256 113 L254 183 L257 253 L255 359" fill="none" stroke="#FF6B00" stroke-width="2" opacity="0.6"/>
    <path d="M197 115 L188 156 L187 211 L187 265 L174 323" fill="none" stroke="#FF6B00" stroke-width="1.9" stroke-linecap="round" opacity="0.71"/>
      <path d="M174 323 L151 356" fill="none" stroke="#FF6B00" stroke-width="1.1" stroke-linecap="round" opacity="0.50"/>
      <path d="M314 130 L294 190 L286 244 L293 293" fill="none" stroke="#FF6B00" stroke-width="1.3" stroke-linecap="round" opacity="0.46"/>
      <path d="M288 118 L301 157 L289 189 L276 238 L275 274" fill="none" stroke="#FF6B00" stroke-width="2.0" stroke-linecap="round" opacity="0.70"/>
      <path d="M275 274 L259 300" fill="none" stroke="#FF6B00" stroke-width="1.2" stroke-linecap="round" opacity="0.49"/>
      <path d="M241 115 L240 169 L242 207 L255 240" fill="none" stroke="#FF6B00" stroke-width="1.6" stroke-linecap="round" opacity="0.66"/>
      <path d="M253 109 L263 166 L264 215 L276 265" fill="none" stroke="#FF6B00" stroke-width="2.2" stroke-linecap="round" opacity="0.80"/>
      <path d="M308 105 L325 160 L338 215" fill="none" stroke="#FF6B00" stroke-width="2.1" stroke-linecap="round" opacity="0.70"/>
      <path d="M276 127 L282 179 L265 213 L263 243 L246 299" fill="none" stroke="#FF6B00" stroke-width="2.0" stroke-linecap="round" opacity="0.53"/>
      <path d="M183 139 L197 195 L203 245 L214 287 L220 345" fill="none" stroke="#FF6B00" stroke-width="1.3" stroke-linecap="round" opacity="0.45"/>
      <path d="M220 345 L229 366" fill="none" stroke="#FF6B00" stroke-width="0.8" stroke-linecap="round" opacity="0.32"/>
      
  </g>

  

  <!-- Particles -->
  <circle cx="149" cy="387" r="1.2" fill="#FF6B00" opacity="0.42"/>
      <circle cx="241" cy="277" r="1.1" fill="#FF6B00" opacity="0.16"/>
      <circle cx="303" cy="219" r="1.5" fill="#FF6B00" opacity="0.48"/>
      <circle cx="278" cy="167" r="1.9" fill="#FF6B00" opacity="0.20"/>
      <circle cx="343" cy="352" r="1.6" fill="#FF6B00" opacity="0.21"/>
      <circle cx="170" cy="370" r="1.8" fill="#FF6B00" opacity="0.19"/>
      <circle cx="191" cy="369" r="1.6" fill="#FF6B00" opacity="0.38"/>
      <circle cx="256" cy="228" r="2.8" fill="#FF6B00" opacity="0.29"/>
      

  <!-- Ambient glow at feet -->
  <ellipse cx="256" cy="404" rx="88" ry="15" fill="#FF4500" opacity="0.08" filter="url(#auraF)"/>

  <!-- Border ring -->
  <rect x="4" y="4" width="504" height="504" rx="16" fill="none" stroke="#FF6B00" stroke-width="1" opacity="0.1"/>
</svg>