<svg xmlns="http://www.w3.org/2000/svg" viewBox="0 0 512 512" width="512" height="512">
  <defs>
    <radialGradient id="bg"><stop offset="0%" stop-color="#120a04"/><stop offset="100%" stop-color="#080604"/></radialGradient>
    <radialGradient id="aura" cx="50%" cy="40%" r="40%"><stop offset="0%" stop-color="#FF4500" stop-opacity="0.15"/><stop offset="100%" stop-color="#FF4500" stop-opacity="0"/></radialGradient>
    <linearGradient id="stone" x1="0" y1="0" x2="0" y2="1"><stop offset="0%" stop-color="#222"/><stop offset="100%" stop-color="#0a0a0a"/></linearGradient>
    <filter id="glow"><feGaussianBlur in="SourceGraphic" stdDeviation="4" result="b"/><feMerge><feMergeNode in="b"/><feMergeNode in="SourceGraphic"/></feMerge></filter>
    <filter id="auraF"><feGaussianBlur in="SourceGraphic" stdDeviation="10"/></filter>
  </defs>
  <rect width="512" height="512" fill="url(#bg)"/>
  <circle cx="256" cy="176" r="150" fill="url(#aura)"/>

  <!-- Body -->
  <path d="M214 146 L196 186 L201 336 L226 366 L286 366 L311 336 L316 186 L298 146Z" fill="url(#stone)" stroke="#1a1a1a" stroke-width="1"/>

  <!-- Shoulder pads -->
  <path d="M214 146 L194 161 L199 196 L214 196Z" fill="#161616"/>
  <path d="M298 146 L318 161 L313 196 L298 196Z" fill="#161616"/>

  <!-- Helm -->
  <path d="M256 66 L233 111 L223 146 L289 146 L279 111Z" fill="#181818" stroke="#222" stroke-width="1"/>

  <!-- Eyes -->
  <g fill="#FF6B00" filter="url(#glow)">
    <circle cx="238" cy="131" r="7"/>
    <circle cx="274" cy="131" r="7"/>
  </g>
  <g fill="#FF9500" opacity="0.7">
    <circle cx="238" cy="131" r="7"/>
    <circle cx="274" cy="131" r="7"/>
  </g>

  <!-- Energy veins -->
  <g filter="url(#glow)">
    <!-- Center spine -->
    <path d="M256 146 L254 216 L257 286 L255 326" fill="none" stroke="#FF6B00" stroke-width="2" opacity="0.6"/>
    <path d="M301 172 L281 216 L278 255" fill="none" stroke="#FF6B00" stroke-width="2.4" stroke-linecap="round" opacity="0.45"/>
      <path d="M278 255 L291 289" fill="none" stroke="#FF6B00" stroke-width="1.4" stroke-linecap="round" opacity="0.32"/>
      <path d="M300 154 L311 196 L296 256 L301 294" fill="none" stroke="#FF6B00" stroke-width="1.5" stroke-linecap="round" opacity="0.41"/>
      <path d="M281 175 L271 230 L263 268 L256 325 L241 355" fill="none" stroke="#FF6B00" stroke-width="1.1" stroke-linecap="round" opacity="0.50"/>
      <path d="M241 355 L218 372" fill="none" stroke="#FF6B00" stroke-width="0.7" stroke-linecap="round" opacity="0.35"/>
      <path d="M304 136 L290 183 L276 243 L276 291 L286 344" fill="none" stroke="#FF6B00" stroke-width="1.9" stroke-linecap="round" opacity="0.62"/>
      <path d="M226 162 L232 204 L248 234 L248 277" fill="none" stroke="#FF6B00" stroke-width="2.5" stroke-linecap="round" opacity="0.55"/>
      <path d="M248 277 L227 299" fill="none" stroke="#FF6B00" stroke-width="1.5" stroke-linecap="round" opacity="0.39"/>
      
  </g>

  

  <!-- Particles -->
  

  <!-- Ambient glow at feet -->
  <ellipse cx="256" cy="371" rx="70" ry="15" fill="#FF4500" opacity="0.08" filter="url(#auraF)"/>

  <!-- Border ring -->
  <rect x="4" y="4" width="504" height="504" rx="16" fill="none" stroke="#FF6B00" stroke-width="1" opacity="0.1"/>
</svg>