<svg xmlns="http://www.w3.org/2000/svg" viewBox="0 0 512 512" width="512" height="512">
  <defs>
    <radialGradient id="bg"><stop offset="0%" stop-color="#1a0802"/><stop offset="100%" stop-color="#0d0604"/></radialGradient>
    <radialGradient id="aura" cx="50%" cy="40%" r="40%"><stop offset="0%" stop-color="#7C3AED" stop-opacity="0.15"/><stop offset="100%" stop-color="#7C3AED" stop-opacity="0"/></radialGradient>
    <linearGradient id="stone" x1="0" y1="0" x2="0" y2="1"><stop offset="0%" stop-color="#222"/><stop offset="100%" stop-color="#0a0a0a"/></linearGradient>
    <filter id="glow"><feGaussianBlur in="SourceGraphic" stdDeviation="4" result="b"/><feMerge><feMergeNode in="b"/><feMergeNode in="SourceGraphic"/></feMerge></filter>
    <filter id="auraF"><feGaussianBlur in="SourceGraphic" stdDeviation="10"/></filter>
  </defs>
  <rect width="512" height="512" fill="url(#bg)"/>
  <circle cx="256" cy="176" r="150" fill="url(#aura)"/>

  <!-- Body -->
  <path d="M214 146 L196 186 L201 336 L226 366 L286 366 L311 336 L316 186 L298 146Z" fill="url(#stone)" stroke="#1a1a1a" stroke-width="1"/>

  <!-- Shoulder pads -->
  <path d="M214 146 L194 161 L199 196 L214 196Z" fill="#161616"/>
  <path d="M298 146 L318 161 L313 196 L298 196Z" fill="#161616"/>

  <!-- Helm -->
  <path d="M256 76 L223 116 L228 146 L284 146 L289 116Z" fill="#181818" stroke="#222" stroke-width="1"/>

  <!-- Eyes -->
  <g fill="#8B5CF6" filter="url(#glow)">
    <path d="M238 123 L246 131 L238 139 L230 131Z"/>
    <path d="M274 123 L282 131 L274 139 L266 131Z"/>
  </g>
  <g fill="#A78BFA" opacity="0.7">
    <path d="M238 123 L246 131 L238 139 L230 131Z"/>
    <path d="M274 123 L282 131 L274 139 L266 131Z"/>
  </g>

  <!-- Energy veins -->
  <g filter="url(#glow)">
    <!-- Center spine -->
    <path d="M256 146 L254 216 L257 286 L255 326" fill="none" stroke="#8B5CF6" stroke-width="2" opacity="0.6"/>
    <path d="M259 164 L267 198 L254 239 L258 295" fill="none" stroke="#8B5CF6" stroke-width="2.0" stroke-linecap="round" opacity="0.47"/>
      <path d="M258 295 L258 329" fill="none" stroke="#8B5CF6" stroke-width="1.2" stroke-linecap="round" opacity="0.33"/>
      <path d="M295 139 L279 185 L299 229 L283 279 L296 325" fill="none" stroke="#8B5CF6" stroke-width="1.6" stroke-linecap="round" opacity="0.49"/>
      <path d="M296 325 L300 346" fill="none" stroke="#8B5CF6" stroke-width="1.0" stroke-linecap="round" opacity="0.34"/>
      <path d="M207 170 L220 224 L220 282 L206 328" fill="none" stroke="#8B5CF6" stroke-width="1.7" stroke-linecap="round" opacity="0.76"/>
      <path d="M299 171 L302 217 L312 271" fill="none" stroke="#8B5CF6" stroke-width="1.5" stroke-linecap="round" opacity="0.70"/>
      <path d="M258 149 L265 187 L259 245" fill="none" stroke="#8B5CF6" stroke-width="2.1" stroke-linecap="round" opacity="0.78"/>
      <path d="M288 146 L296 183 L302 234 L310 265" fill="none" stroke="#8B5CF6" stroke-width="2.5" stroke-linecap="round" opacity="0.74"/>
      <path d="M310 265 L290 296" fill="none" stroke="#8B5CF6" stroke-width="1.5" stroke-linecap="round" opacity="0.52"/>
      <path d="M238 158 L231 215 L224 263 L212 295" fill="none" stroke="#8B5CF6" stroke-width="1.1" stroke-linecap="round" opacity="0.38"/>
      <path d="M212 295 L206 322" fill="none" stroke="#8B5CF6" stroke-width="0.7" stroke-linecap="round" opacity="0.27"/>
      <path d="M217 142 L214 197 L233 231 L244 275 L258 307" fill="none" stroke="#8B5CF6" stroke-width="1.5" stroke-linecap="round" opacity="0.79"/>
      <path d="M258 307 L264 330" fill="none" stroke="#8B5CF6" stroke-width="0.9" stroke-linecap="round" opacity="0.55"/>
      <path d="M300 146 L300 201 L319 261 L336 306 L348 358" fill="none" stroke="#8B5CF6" stroke-width="1.9" stroke-linecap="round" opacity="0.67"/>
      <path d="M348 358 L371 374" fill="none" stroke="#8B5CF6" stroke-width="1.1" stroke-linecap="round" opacity="0.47"/>
      <path d="M272 164 L260 198 L244 231" fill="none" stroke="#8B5CF6" stroke-width="1.6" stroke-linecap="round" opacity="0.71"/>
      <path d="M221 150 L214 198 L219 247 L211 289 L195 323" fill="none" stroke="#8B5CF6" stroke-width="2.2" stroke-linecap="round" opacity="0.31"/>
      <path d="M249 149 L237 194 L233 235 L220 279 L225 321" fill="none" stroke="#8B5CF6" stroke-width="2.2" stroke-linecap="round" opacity="0.37"/>
      <path d="M225 321 L216 353" fill="none" stroke="#8B5CF6" stroke-width="1.3" stroke-linecap="round" opacity="0.26"/>
      
  </g>

  

  <!-- Particles -->
  <circle cx="213" cy="170" r="1.5" fill="#8B5CF6" opacity="0.21"/>
      <circle cx="335" cy="257" r="2.3" fill="#8B5CF6" opacity="0.42"/>
      <circle cx="168" cy="290" r="1.9" fill="#8B5CF6" opacity="0.37"/>
      <circle cx="182" cy="132" r="1.8" fill="#8B5CF6" opacity="0.25"/>
      <circle cx="172" cy="344" r="2.1" fill="#8B5CF6" opacity="0.39"/>
      <circle cx="330" cy="296" r="1.7" fill="#8B5CF6" opacity="0.46"/>
      <circle cx="168" cy="283" r="1.6" fill="#8B5CF6" opacity="0.25"/>
      <circle cx="189" cy="344" r="1.4" fill="#8B5CF6" opacity="0.46"/>
      <circle cx="272" cy="106" r="1.8" fill="#8B5CF6" opacity="0.29"/>
      <circle cx="251" cy="133" r="2.0" fill="#8B5CF6" opacity="0.41"/>
      <circle cx="292" cy="223" r="2.4" fill="#8B5CF6" opacity="0.43"/>
      <circle cx="282" cy="256" r="2.2" fill="#8B5CF6" opacity="0.31"/>
      <circle cx="311" cy="105" r="2.0" fill="#8B5CF6" opacity="0.25"/>
      <circle cx="261" cy="300" r="2.0" fill="#8B5CF6" opacity="0.23"/>
      <circle cx="324" cy="199" r="2.3" fill="#8B5CF6" opacity="0.26"/>
      

  <!-- Ambient glow at feet -->
  <ellipse cx="256" cy="371" rx="70" ry="15" fill="#7C3AED" opacity="0.08" filter="url(#auraF)"/>

  <!-- Border ring -->
  <rect x="4" y="4" width="504" height="504" rx="16" fill="none" stroke="#8B5CF6" stroke-width="1" opacity="0.1"/>
</svg>