<svg xmlns="http://www.w3.org/2000/svg" viewBox="0 0 512 512" width="512" height="512">
  <defs>
    <radialGradient id="bg"><stop offset="0%" stop-color="#1a0802"/><stop offset="100%" stop-color="#0d0604"/></radialGradient>
    <radialGradient id="aura" cx="50%" cy="40%" r="40%"><stop offset="0%" stop-color="#7C3AED" stop-opacity="0.15"/><stop offset="100%" stop-color="#7C3AED" stop-opacity="0"/></radialGradient>
    <linearGradient id="stone" x1="0" y1="0" x2="0" y2="1"><stop offset="0%" stop-color="#222"/><stop offset="100%" stop-color="#0a0a0a"/></linearGradient>
    <filter id="glow"><feGaussianBlur in="SourceGraphic" stdDeviation="4" result="b"/><feMerge><feMergeNode in="b"/><feMergeNode in="SourceGraphic"/></feMerge></filter>
    <filter id="auraF"><feGaussianBlur in="SourceGraphic" stdDeviation="10"/></filter>
  </defs>
  <rect width="512" height="512" fill="url(#bg)"/>
  <circle cx="256" cy="176" r="150" fill="url(#aura)"/>

  <!-- Body -->
  <path d="M214 146 L196 186 L201 336 L226 366 L286 366 L311 336 L316 186 L298 146Z" fill="url(#stone)" stroke="#1a1a1a" stroke-width="1"/>

  <!-- Shoulder pads -->
  <path d="M214 146 L194 161 L199 196 L214 196Z" fill="#161616"/>
  <path d="M298 146 L318 161 L313 196 L298 196Z" fill="#161616"/>

  <!-- Helm -->
  <path d="M228 91 L239.5 106 L256 86 L272.5 106 L284 91 L289 121 L289 146 L223 146 L223 121Z" fill="#181818" stroke="#222" stroke-width="1"/>

  <!-- Eyes -->
  <g fill="#8B5CF6" filter="url(#glow)">
    <circle cx="238" cy="131" r="7"/>
    <circle cx="274" cy="131" r="7"/>
  </g>
  <g fill="#A78BFA" opacity="0.7">
    <circle cx="238" cy="131" r="7"/>
    <circle cx="274" cy="131" r="7"/>
  </g>

  <!-- Energy veins -->
  <g filter="url(#glow)">
    <!-- Center spine -->
    <path d="M256 146 L254 216 L257 286 L255 326" fill="none" stroke="#8B5CF6" stroke-width="2" opacity="0.6"/>
    <path d="M316 175 L322 209 L332 250" fill="none" stroke="#8B5CF6" stroke-width="2.3" stroke-linecap="round" opacity="0.32"/>
      <path d="M332 250 L355 289" fill="none" stroke="#8B5CF6" stroke-width="1.4" stroke-linecap="round" opacity="0.22"/>
      <path d="M201 140 L196 184 L216 216" fill="none" stroke="#8B5CF6" stroke-width="1.4" stroke-linecap="round" opacity="0.30"/>
      <path d="M216 216 L235 253" fill="none" stroke="#8B5CF6" stroke-width="0.8" stroke-linecap="round" opacity="0.21"/>
      <path d="M304 168 L314 218 L300 273 L286 322" fill="none" stroke="#8B5CF6" stroke-width="1.3" stroke-linecap="round" opacity="0.78"/>
      
  </g>

  

  <!-- Particles -->
  

  <!-- Ambient glow at feet -->
  <ellipse cx="256" cy="371" rx="70" ry="15" fill="#7C3AED" opacity="0.08" filter="url(#auraF)"/>

  <!-- Border ring -->
  <rect x="4" y="4" width="504" height="504" rx="16" fill="none" stroke="#8B5CF6" stroke-width="1" opacity="0.1"/>
</svg>