<svg xmlns="http://www.w3.org/2000/svg" viewBox="0 0 512 512" width="512" height="512">
  <defs>
    <radialGradient id="bg"><stop offset="0%" stop-color="#08061a"/><stop offset="100%" stop-color="#040408"/></radialGradient>
    <radialGradient id="aura" cx="50%" cy="40%" r="40%"><stop offset="0%" stop-color="#7C3AED" stop-opacity="0.15"/><stop offset="100%" stop-color="#7C3AED" stop-opacity="0"/></radialGradient>
    <linearGradient id="stone" x1="0" y1="0" x2="0" y2="1"><stop offset="0%" stop-color="#222"/><stop offset="100%" stop-color="#0a0a0a"/></linearGradient>
    <filter id="glow"><feGaussianBlur in="SourceGraphic" stdDeviation="4" result="b"/><feMerge><feMergeNode in="b"/><feMergeNode in="SourceGraphic"/></feMerge></filter>
    <filter id="auraF"><feGaussianBlur in="SourceGraphic" stdDeviation="10"/></filter>
  </defs>
  <rect width="512" height="512" fill="url(#bg)"/>
  <circle cx="256" cy="198" r="150" fill="url(#aura)"/>

  <!-- Body -->
  <path d="M222 168 L208 208 L213 314 L232 344 L280 344 L299 314 L304 208 L290 168Z" fill="url(#stone)" stroke="#1a1a1a" stroke-width="1"/>

  <!-- Shoulder pads -->
  <path d="M222 168 L202 183 L207 218 L222 218Z" fill="#161616"/>
  <path d="M290 168 L310 183 L305 218 L290 218Z" fill="#161616"/>

  <!-- Helm -->
  <path d="M256 98 L230 138 L235 168 L277 168 L282 138Z" fill="#181818" stroke="#222" stroke-width="1"/>

  <!-- Eyes -->
  <g fill="#8B5CF6" filter="url(#glow)">
    <path d="M234 153 L242 150 L250 153 L242 156Z"/>
    <path d="M262 153 L270 150 L278 153 L270 156Z"/>
  </g>
  <g fill="#A78BFA" opacity="0.7">
    <path d="M234 153 L242 150 L250 153 L242 156Z"/>
    <path d="M262 153 L270 150 L278 153 L270 156Z"/>
  </g>

  <!-- Energy veins -->
  <g filter="url(#glow)">
    <!-- Center spine -->
    <path d="M256 168 L254 238 L257 308 L255 304" fill="none" stroke="#8B5CF6" stroke-width="2" opacity="0.6"/>
    <path d="M219 186 L239 220 L250 276" fill="none" stroke="#8B5CF6" stroke-width="1.3" stroke-linecap="round" opacity="0.51"/>
      <path d="M250 276 L243 312" fill="none" stroke="#8B5CF6" stroke-width="0.8" stroke-linecap="round" opacity="0.36"/>
      <path d="M234 171 L235 231 L251 288 L258 322 L242 367" fill="none" stroke="#8B5CF6" stroke-width="1.6" stroke-linecap="round" opacity="0.33"/>
      <path d="M242 367 L258 391" fill="none" stroke="#8B5CF6" stroke-width="1.0" stroke-linecap="round" opacity="0.23"/>
      <path d="M243 195 L230 225 L213 264 L231 295 L217 349" fill="none" stroke="#8B5CF6" stroke-width="1.3" stroke-linecap="round" opacity="0.68"/>
      <path d="M217 349 L194 370" fill="none" stroke="#8B5CF6" stroke-width="0.8" stroke-linecap="round" opacity="0.48"/>
      
  </g>

  <path d="M256 233 L268 248 L256 263 L244 248Z" fill="none" stroke="#A78BFA" stroke-width="1.5" opacity="0.6"/>

  <!-- Particles -->
  

  <!-- Ambient glow at feet -->
  <ellipse cx="256" cy="349" rx="58" ry="15" fill="#7C3AED" opacity="0.08" filter="url(#auraF)"/>

  <!-- Border ring -->
  <rect x="4" y="4" width="504" height="504" rx="16" fill="none" stroke="#8B5CF6" stroke-width="1" opacity="0.1"/>
</svg>