<svg viewBox="0 0 512 512" xmlns="http://www.w3.org/2000/svg">
  <defs><clipPath id="c"><rect width="512" height="512" rx="96"/></clipPath></defs>
  <g clip-path="url(#c)">
    <rect width="512" height="512" fill="#0e0e16"/>
    <g fill="#ff6b00">
      <!-- F -->
      <rect x="72" y="92" width="36" height="152" rx="5"/>
      <rect x="72" y="92" width="112" height="36" rx="5"/>
      <rect x="72" y="156" width="80" height="28" rx="5"/>
      <!-- O -->
      <rect x="200" y="92" width="36" height="152" rx="5"/>
      <rect x="276" y="92" width="36" height="152" rx="5"/>
      <rect x="200" y="92" width="112" height="36" rx="5"/>
      <rect x="200" y="208" width="112" height="36" rx="5"/>
      <!-- R -->
      <rect x="328" y="92" width="36" height="152" rx="5"/>
      <rect x="328" y="92" width="112" height="36" rx="5"/>
      <rect x="404" y="92" width="36" height="88" rx="5"/>
      <rect x="328" y="152" width="112" height="28" rx="5"/>
      <polygon points="376,180 412,180 440,244 404,244"/>
      <!-- G -->
      <rect x="72" y="272" width="36" height="152" rx="5"/>
      <rect x="72" y="272" width="112" height="36" rx="5"/>
      <rect x="72" y="388" width="112" height="36" rx="5"/>
      <rect x="148" y="348" width="36" height="76" rx="5"/>
      <rect x="110" y="348" width="74" height="28" rx="5"/>
      <!-- E -->
      <rect x="200" y="272" width="36" height="152" rx="5"/>
      <rect x="200" y="272" width="112" height="36" rx="5"/>
      <rect x="200" y="336" width="80" height="28" rx="5"/>
      <rect x="200" y="388" width="112" height="36" rx="5"/>
    </g>
  </g>
</svg>
